{
  "accessors": [
    {
      "bufferView": 0,
      "componentType": 5126,
      "count": 1456,
      "max": [
        0.550000011920929,
        1.4199999570846558,
        1.125
      ],
      "min": [
        -0.550000011920929,
        0.0,
        -1.125
      ],
      "type": "VEC3"
    },
    {
      "bufferView": 0,
      "byteOffset": 12,
      "componentType": 5126,
      "count": 1456,
      "type": "VEC3"
    },
    {
      "bufferView": 1,
      "componentType": 5125,
      "count": 5694,
      "type": "SCALAR"
    },
    {
      "bufferView": 0,
      "byteOffset": 46592,
      "componentType": 5126,
      "count": 375,
      "max": [
        0.49860191345214844,
        1.5,
        0.5
      ],
      "min": [
        -0.49860191345214844,
        1.399999976158142,
        -0.5
      ],
      "type": "VEC3"
    },
    {
      "bufferView": 0,
      "byteOffset": 46604,
      "componentType": 5126,
      "count": 375,
      "type": "VEC3"
    },
    {
      "bufferView": 1,
      "byteOffset": 22776,
      "componentType": 5125,
      "count": 1686,
      "type": "SCALAR"
    }
  ],
  "asset": {
    "version": "2.0"
  },
  "bufferViews": [
    {
      "buffer": 0,
      "byteLength": 58592,
      "byteStride": 32,
      "target": 34962
    },
    {
      "buffer": 0,
      "byteLength": 29520,
      "byteOffset": 58592,
      "target": 34963
    }
  ],
  "buffers": [
    {
      "byteLength": 88112,
      "uri": "data:application/octet-stream;base64,"
    }
  ],
  "extensionsUsed": [
    "KHR_materials_clearcoat",
    "KHR_materials_transmission"
  ],
  "materials": [
    {
      "doubleSided": true,
      "extensions": {
        "KHR_materials_clearcoat": {
          "clearcoatFactor": 1.0,
          "clearcoatRoughnessFactor": 0.10000000149011612
        }
      },
      "name": "GlossyBlack",
      "pbrMetallicRoughness": {
        "baseColorFactor": [
          0.0,
          0.0,
          0.0,
          1.0
        ],
        "metallicFactor": 0.75,
        "roughnessFactor": 0.6600000262260437
      }
    },
    {
      "doubleSided": true,
      "extensions": {
        "KHR_materials_transmission": {
          "transmissionFactor": 0.800000011920929
        }
      },
      "name": "ClearBlue",
      "pbrMetallicRoughness": {
        "baseColorFactor": [
          0.0003035269910469651,
          0.04817179962992668,
          0.8796219825744629,
          1.0
        ],
        "metallicFactor": 0.0,
        "roughnessFactor": 0.0
      }
    }
  ],
  "meshes": [
    {
      "name": "Solid1",
      "primitives": [
        {
          "attributes": {
            "NORMAL": 1,
            "POSITION": 0
          },
          "indices": 2,
          "material": 0,
          "mode": 4
        },
        {
          "attributes": {
            "NORMAL": 4,
            "POSITION": 3
          },
          "indices": 5,
          "material": 1,
          "mode": 4
        }
      ]
    }
  ],
  "nodes": [
    {
      "matrix": [
        0.01,
        0.0,
        0.0,
        0.0,
        0.0,
        0.01,
        0.0,
        0.0,
        0.0,
        0.0,
        0.01,
        0.0,
        0.0,
        0.0,
        0.0,
        1.0
      ],
      "mesh": 0,
      "name": "Solid1"
    }
  ],
  "scenes": [
    {
      "nodes": [
        0
      ]
    }
  ]
}