{
  "accessors": [
    {
      "bufferView": 0,
      "componentType": 5126,
      "count": 1161,
      "max": [
        0.39863380789756775,
        2.609999895095825,
        0.4000000059604645
      ],
      "min": [
        -0.39863380789756775,
        0.0,
        -0.4000000059604645
      ],
      "type": "VEC3"
    },
    {
      "bufferView": 0,
      "byteOffset": 12,
      "componentType": 5126,
      "count": 1161,
      "type": "VEC3"
    },
    {
      "bufferView": 1,
      "componentType": 5125,
      "count": 3510,
      "type": "SCALAR"
    }
  ],
  "asset": {
    "version": "2.0"
  },
  "bufferViews": [
    {
      "buffer": 0,
      "byteLength": 37152,
      "byteStride": 32,
      "target": 34962
    },
    {
      "buffer": 0,
      "byteLength": 14040,
      "byteOffset": 37152,
      "target": 34963
    }
  ],
  "buffers": [
    {
      "byteLength": 51192,
      "uri": "data:application/octet-stream;base64,"
    }
  ],
  "materials": [
    {
      "doubleSided": true,
      "name": "BronzeSatin",
      "pbrMetallicRoughness": {
        "baseColorFactor": [
          0.14143399894237518,
          0.07423309981822968,
          0.04359859973192215,
          1.0
        ],
        "metallicFactor": 0.27272701263427734,
        "roughnessFactor": 0.75
      }
    }
  ],
  "meshes": [
    {
      "name": "Solid1",
      "primitives": [
        {
          "attributes": {
            "NORMAL": 1,
            "POSITION": 0
          },
          "indices": 2,
          "material": 0,
          "mode": 4
        }
      ]
    }
  ],
  "nodes": [
    {
      "matrix": [
        0.01,
        0.0,
        0.0,
        0.0,
        0.0,
        0.01,
        0.0,
        0.0,
        0.0,
        0.0,
        0.01,
        0.0,
        0.0,
        0.0,
        0.0,
        1.0
      ],
      "mesh": 0,
      "name": "Solid1"
    }
  ],
  "scenes": [
    {
      "nodes": [
        0
      ]
    }
  ]
}