{
  "accessors": [
    {
      "bufferView": 0,
      "componentType": 5126,
      "count": 1229,
      "max": [
        7.200263977050781,
        2.299999952316284,
        0.9420145750045776
      ],
      "min": [
        -7.200263977050781,
        0.0,
        -0.9420145750045776
      ],
      "type": "VEC3"
    },
    {
      "bufferView": 0,
      "byteOffset": 12,
      "componentType": 5126,
      "count": 1229,
      "type": "VEC3"
    },
    {
      "bufferView": 1,
      "componentType": 5125,
      "count": 5340,
      "type": "SCALAR"
    }
  ],
  "asset": {
    "version": "2.0"
  },
  "bufferViews": [
    {
      "buffer": 0,
      "byteLength": 39328,
      "byteStride": 32,
      "target": 34962
    },
    {
      "buffer": 0,
      "byteLength": 21360,
      "byteOffset": 39328,
      "target": 34963
    }
  ],
  "buffers": [
    {
      "byteLength": 60688,
      "uri": "data:application/octet-stream;base64,"
    }
  ],
  "materials": [
    {
      "doubleSided": true,
      "name": "IronGray",
      "pbrMetallicRoughness": {
        "baseColorFactor": [
          0.10224200040102005,
          0.12213899940252304,
          0.13286800682544708,
          1.0
        ],
        "metallicFactor": 0.8181819915771484,
        "roughnessFactor": 0.699999988079071
      }
    }
  ],
  "meshes": [
    {
      "name": "Solid1",
      "primitives": [
        {
          "attributes": {
            "NORMAL": 1,
            "POSITION": 0
          },
          "indices": 2,
          "material": 0,
          "mode": 4
        }
      ]
    }
  ],
  "nodes": [
    {
      "matrix": [
        0.01,
        0.0,
        0.0,
        0.0,
        0.0,
        0.01,
        0.0,
        0.0,
        0.0,
        0.0,
        0.01,
        0.0,
        0.0,
        0.0,
        0.0,
        1.0
      ],
      "mesh": 0,
      "name": "Solid1"
    }
  ],
  "scenes": [
    {
      "nodes": [
        0
      ]
    }
  ]
}