{
  "accessors": [
    {
      "bufferView": 0,
      "componentType": 5126,
      "count": 79,
      "max": [
        0.5809863209724426,
        -0.346031129360199,
        -0.06218203529715538
      ],
      "min": [
        -0.5789603590965271,
        -1.5702126026153564,
        -1.357338786125183
      ],
      "type": "VEC3"
    },
    {
      "bufferView": 0,
      "byteOffset": 12,
      "componentType": 5126,
      "count": 79,
      "type": "VEC3"
    },
    {
      "bufferView": 1,
      "componentType": 5125,
      "count": 351,
      "type": "SCALAR"
    },
    {
      "bufferView": 0,
      "byteOffset": 2528,
      "componentType": 5126,
      "count": 2977,
      "max": [
        1.4998862743377686,
        1.0,
        6.0
      ],
      "min": [
        -1.4998804330825806,
        -2.8499999046325684,
        -1.5
      ],
      "type": "VEC3"
    },
    {
      "bufferView": 0,
      "byteOffset": 2540,
      "componentType": 5126,
      "count": 2977,
      "type": "VEC3"
    },
    {
      "bufferView": 0,
      "byteOffset": 2552,
      "componentType": 5126,
      "count": 2977,
      "type": "VEC2"
    },
    {
      "bufferView": 1,
      "byteOffset": 1404,
      "componentType": 5125,
      "count": 13041,
      "type": "SCALAR"
    },
    {
      "bufferView": 0,
      "byteOffset": 97792,
      "componentType": 5126,
      "count": 274,
      "max": [
        1.2877416610717773,
        1.0,
        1.840000033378601
      ],
      "min": [
        -1.2877416610717773,
        0.925000011920929,
        -1.2899999618530273
      ],
      "type": "VEC3"
    },
    {
      "bufferView": 0,
      "byteOffset": 97804,
      "componentType": 5126,
      "count": 274,
      "type": "VEC3"
    },
    {
      "bufferView": 1,
      "byteOffset": 53568,
      "componentType": 5125,
      "count": 804,
      "type": "SCALAR"
    }
  ],
  "asset": {
    "version": "2.0"
  },
  "bufferViews": [
    {
      "buffer": 0,
      "byteLength": 106560,
      "byteStride": 32,
      "target": 34962
    },
    {
      "buffer": 0,
      "byteLength": 56784,
      "byteOffset": 106560,
      "target": 34963
    },
    {
      "buffer": 0,
      "byteLength": 116955,
      "byteOffset": 163344
    }
  ],
  "buffers": [
    {
      "byteLength": 280300,
      "uri": "data:application/octet-stream;base64,"
    }
  ],
  "extensionsUsed": [
    "KHR_materials_transmission",
    "KHR_texture_transform"
  ],
  "images": [
    {
      "bufferView": 2,
      "mimeType": "image/png",
      "name": "MetalsOrnamentalMetalsAluminumBrushed_normalmap.png"
    }
  ],
  "materials": [
    {
      "doubleSided": true,
      "extensions": {
        "KHR_materials_transmission": {
          "transmissionFactor": 0.800000011920929
        }
      },
      "name": "ClearGreen1",
      "pbrMetallicRoughness": {
        "baseColorFactor": [
          0.005181519780308008,
          0.40724000334739685,
          0.06847819685935974,
          1.0
        ],
        "metallicFactor": 0.0,
        "roughnessFactor": 0.0
      }
    },
    {
      "doubleSided": true,
      "name": "DarkGray",
      "normalTexture": {
        "extensions": {
          "KHR_texture_transform": {
            "rotation": 1.5707963705062866,
            "scale": [
              0.007874015718698502,
              0.001312335953116417
            ]
          }
        },
        "index": 0
      },
      "pbrMetallicRoughness": {
        "baseColorFactor": [
          0.059253498911857605,
          0.059253498911857605,
          0.059253498911857605,
          1.0
        ],
        "metallicFactor": 0.0,
        "roughnessFactor": 0.42500001192092896
      }
    },
    {
      "doubleSided": true,
      "extensions": {
        "KHR_materials_transmission": {
          "transmissionFactor": 1.0
        }
      },
      "name": "Clear",
      "pbrMetallicRoughness": {
        "metallicFactor": 0.05555560067296028,
        "roughnessFactor": 0.0
      }
    }
  ],
  "meshes": [
    {
      "name": "Solid1",
      "primitives": [
        {
          "attributes": {
            "NORMAL": 1,
            "POSITION": 0
          },
          "indices": 2,
          "material": 0,
          "mode": 4
        },
        {
          "attributes": {
            "NORMAL": 4,
            "POSITION": 3,
            "TEXCOORD_0": 5
          },
          "indices": 6,
          "material": 1,
          "mode": 4
        },
        {
          "attributes": {
            "NORMAL": 8,
            "POSITION": 7
          },
          "indices": 9,
          "material": 2,
          "mode": 4
        }
      ]
    }
  ],
  "nodes": [
    {
      "matrix": [
        0.01,
        0.0,
        0.0,
        0.0,
        0.0,
        0.01,
        0.0,
        0.0,
        0.0,
        0.0,
        0.01,
        0.0,
        0.0,
        0.0,
        0.0,
        1.0
      ],
      "mesh": 0,
      "name": "Solid1"
    }
  ],
  "samplers": [
    {
      "magFilter": 9729,
      "minFilter": 9729,
      "wrapS": 10497,
      "wrapT": 10497
    }
  ],
  "scenes": [
    {
      "nodes": [
        0
      ]
    }
  ],
  "textures": [
    {
      "name": "texture_source0_sampler0",
      "sampler": 0,
      "source": 0
    }
  ]
}