{
  "accessors": [
    {
      "bufferView": 0,
      "componentType": 5126,
      "count": 6717,
      "max": [
        6.149798393249512,
        16.875,
        1.8999415636062622
      ],
      "min": [
        -6.149798393249512,
        -0.49630478024482727,
        0.0
      ],
      "type": "VEC3"
    },
    {
      "bufferView": 0,
      "byteOffset": 12,
      "componentType": 5126,
      "count": 6717,
      "type": "VEC3"
    },
    {
      "bufferView": 0,
      "byteOffset": 24,
      "componentType": 5126,
      "count": 6717,
      "type": "VEC2"
    },
    {
      "bufferView": 1,
      "componentType": 5125,
      "count": 19656,
      "type": "SCALAR"
    }
  ],
  "asset": {
    "version": "2.0"
  },
  "bufferViews": [
    {
      "buffer": 0,
      "byteLength": 214944,
      "byteStride": 32,
      "target": 34962
    },
    {
      "buffer": 0,
      "byteLength": 78624,
      "byteOffset": 214944,
      "target": 34963
    },
    {
      "buffer": 0,
      "byteLength": 116955,
      "byteOffset": 293568
    }
  ],
  "buffers": [
    {
      "byteLength": 410524,
      "uri": "data:application/octet-stream;base64,"
    }
  ],
  "extensionsUsed": [
    "KHR_texture_transform"
  ],
  "images": [
    {
      "bufferView": 2,
      "mimeType": "image/png",
      "name": "MetalsOrnamentalMetalsAluminumBrushed_normalmap.png"
    }
  ],
  "materials": [
    {
      "doubleSided": true,
      "name": "Cyan",
      "normalTexture": {
        "extensions": {
          "KHR_texture_transform": {
            "rotation": 1.5707963705062866,
            "scale": [
              0.007874015718698502,
              0.001312335953116417
            ]
          }
        },
        "index": 0
      },
      "pbrMetallicRoughness": {
        "baseColorFactor": [
          0.029556799679994583,
          0.2422810047864914,
          0.7681509852409363,
          1.0
        ],
        "metallicFactor": 0.0,
        "roughnessFactor": 0.42500001192092896
      }
    }
  ],
  "meshes": [
    {
      "name": "Solid1",
      "primitives": [
        {
          "attributes": {
            "NORMAL": 1,
            "POSITION": 0,
            "TEXCOORD_0": 2
          },
          "indices": 3,
          "material": 0,
          "mode": 4
        }
      ]
    }
  ],
  "nodes": [
    {
      "matrix": [
        0.01,
        0.0,
        0.0,
        0.0,
        0.0,
        0.01,
        0.0,
        0.0,
        0.0,
        0.0,
        0.01,
        0.0,
        0.0,
        0.0,
        0.0,
        1.0
      ],
      "mesh": 0,
      "name": "Solid1"
    }
  ],
  "samplers": [
    {
      "magFilter": 9729,
      "minFilter": 9729,
      "wrapS": 10497,
      "wrapT": 10497
    }
  ],
  "scenes": [
    {
      "nodes": [
        0
      ]
    }
  ],
  "textures": [
    {
      "name": "texture_source0_sampler0",
      "sampler": 0,
      "source": 0
    }
  ]
}