{
  "accessors": [
    {
      "bufferView": 0,
      "componentType": 5126,
      "count": 1151,
      "max": [
        0.24950668215751648,
        0.19580110907554626,
        0.25
      ],
      "min": [
        -0.24950668215751648,
        -0.5,
        -0.25
      ],
      "type": "VEC3"
    },
    {
      "bufferView": 0,
      "byteOffset": 12,
      "componentType": 5126,
      "count": 1151,
      "type": "VEC3"
    },
    {
      "bufferView": 1,
      "componentType": 5125,
      "count": 4686,
      "type": "SCALAR"
    }
  ],
  "asset": {
    "version": "2.0"
  },
  "bufferViews": [
    {
      "buffer": 0,
      "byteLength": 36832,
      "byteStride": 32,
      "target": 34962
    },
    {
      "buffer": 0,
      "byteLength": 18744,
      "byteOffset": 36832,
      "target": 34963
    }
  ],
  "buffers": [
    {
      "byteLength": 55576,
      "uri": "data:application/octet-stream;base64,"
    }
  ],
  "materials": [
    {
      "doubleSided": true,
      "name": "IronGray",
      "pbrMetallicRoughness": {
        "baseColorFactor": [
          0.10224200040102005,
          0.12213899940252304,
          0.13286800682544708,
          1.0
        ],
        "metallicFactor": 0.8181819915771484,
        "roughnessFactor": 0.699999988079071
      }
    }
  ],
  "meshes": [
    {
      "name": "Solid1",
      "primitives": [
        {
          "attributes": {
            "NORMAL": 1,
            "POSITION": 0
          },
          "indices": 2,
          "material": 0,
          "mode": 4
        }
      ]
    }
  ],
  "nodes": [
    {
      "matrix": [
        0.01,
        0.0,
        0.0,
        0.0,
        0.0,
        0.01,
        0.0,
        0.0,
        0.0,
        0.0,
        0.01,
        0.0,
        0.0,
        0.0,
        0.0,
        1.0
      ],
      "mesh": 0,
      "name": "Solid1"
    }
  ],
  "scenes": [
    {
      "nodes": [
        0
      ]
    }
  ]
}