{
  "asset": {
    "generator": "glTF-Transform v4.3.0",
    "version": "2.0"
  },
  "accessors": [
    {
      "type": "VEC3",
      "componentType": 5126,
      "count": 396,
      "max": [
        0,
        4.743601322174072,
        1.5
      ],
      "min": [
        -9.199999809265137,
        -3.6500000953674316,
        -1.5
      ],
      "bufferView": 0,
      "byteOffset": 0
    },
    {
      "type": "VEC3",
      "componentType": 5126,
      "count": 396,
      "bufferView": 0,
      "byteOffset": 12
    },
    {
      "type": "SCALAR",
      "componentType": 5125,
      "count": 1116,
      "bufferView": 1,
      "byteOffset": 0
    },
    {
      "type": "SCALAR",
      "componentType": 5125,
      "count": 1752,
      "bufferView": 1,
      "byteOffset": 4464
    },
    {
      "type": "SCALAR",
      "componentType": 5125,
      "count": 1068,
      "bufferView": 1,
      "byteOffset": 11472
    },
    {
      "type": "SCALAR",
      "componentType": 5125,
      "count": 1680,
      "bufferView": 1,
      "byteOffset": 15744
    },
    {
      "type": "SCALAR",
      "componentType": 5125,
      "count": 1068,
      "bufferView": 1,
      "byteOffset": 22464
    },
    {
      "type": "SCALAR",
      "componentType": 5125,
      "count": 342,
      "bufferView": 1,
      "byteOffset": 26736
    },
    {
      "type": "SCALAR",
      "componentType": 5125,
      "count": 12,
      "bufferView": 1,
      "byteOffset": 28104
    },
    {
      "type": "SCALAR",
      "componentType": 5125,
      "count": 10734,
      "bufferView": 1,
      "byteOffset": 28152
    },
    {
      "type": "SCALAR",
      "componentType": 5125,
      "count": 108,
      "bufferView": 1,
      "byteOffset": 71088
    },
    {
      "type": "SCALAR",
      "componentType": 5125,
      "count": 372,
      "bufferView": 1,
      "byteOffset": 71520
    },
    {
      "type": "SCALAR",
      "componentType": 5125,
      "count": 4608,
      "bufferView": 1,
      "byteOffset": 73008
    },
    {
      "type": "SCALAR",
      "componentType": 5125,
      "count": 4692,
      "bufferView": 1,
      "byteOffset": 91440
    },
    {
      "type": "SCALAR",
      "componentType": 5125,
      "count": 1116,
      "bufferView": 1,
      "byteOffset": 110208
    },
    {
      "type": "SCALAR",
      "componentType": 5125,
      "count": 5940,
      "bufferView": 1,
      "byteOffset": 114672
    },
    {
      "type": "SCALAR",
      "componentType": 5125,
      "count": 1140,
      "bufferView": 1,
      "byteOffset": 138432
    },
    {
      "type": "VEC3",
      "componentType": 5126,
      "count": 498,
      "max": [
        0.5,
        4.14343786239624,
        0.8999999761581421
      ],
      "min": [
        -9.699999809265137,
        2.3565618991851807,
        -0.8999999761581421
      ],
      "bufferView": 2,
      "byteOffset": 0
    },
    {
      "type": "VEC3",
      "componentType": 5126,
      "count": 498,
      "bufferView": 2,
      "byteOffset": 12
    },
    {
      "type": "VEC2",
      "componentType": 5126,
      "count": 498,
      "bufferView": 2,
      "byteOffset": 24
    },
    {
      "type": "VEC3",
      "componentType": 5126,
      "count": 378,
      "max": [
        0,
        6,
        1.5
      ],
      "min": [
        -9.199999809265137,
        -4.900000095367432,
        -1.5
      ],
      "bufferView": 3,
      "byteOffset": 0
    },
    {
      "type": "VEC3",
      "componentType": 5126,
      "count": 378,
      "bufferView": 3,
      "byteOffset": 12
    },
    {
      "type": "VEC3",
      "componentType": 5126,
      "count": 478,
      "max": [
        0.5,
        5.398223876953125,
        0.8999999761581421
      ],
      "min": [
        -9.699999809265137,
        3.601775884628296,
        -0.8999999761581421
      ],
      "bufferView": 4,
      "byteOffset": 0
    },
    {
      "type": "VEC3",
      "componentType": 5126,
      "count": 478,
      "bufferView": 4,
      "byteOffset": 12
    },
    {
      "type": "VEC2",
      "componentType": 5126,
      "count": 478,
      "bufferView": 4,
      "byteOffset": 24
    },
    {
      "type": "VEC3",
      "componentType": 5126,
      "count": 372,
      "max": [
        5,
        7.65957498550415,
        0.10000000149011612
      ],
      "min": [
        0,
        -8.340425491333008,
        -1.100000023841858
      ],
      "bufferView": 5,
      "byteOffset": 0
    },
    {
      "type": "VEC3",
      "componentType": 5126,
      "count": 372,
      "bufferView": 5,
      "byteOffset": 12
    },
    {
      "type": "VEC2",
      "componentType": 5126,
      "count": 372,
      "bufferView": 5,
      "byteOffset": 24
    },
    {
      "type": "VEC3",
      "componentType": 5126,
      "count": 120,
      "max": [
        4.799988746643066,
        -3.487729787826538,
        1
      ],
      "min": [
        2.799999952316284,
        -12.641218185424805,
        -1
      ],
      "bufferView": 6,
      "byteOffset": 0
    },
    {
      "type": "VEC3",
      "componentType": 5126,
      "count": 120,
      "bufferView": 6,
      "byteOffset": 12
    },
    {
      "type": "VEC3",
      "componentType": 5126,
      "count": 12,
      "max": [
        7.599999904632568,
        5.357848167419434,
        -0.00029994838405400515
      ],
      "min": [
        -0.10000000149011612,
        -6.0411272048950195,
        -54.66850662231445
      ],
      "bufferView": 7,
      "byteOffset": 0
    },
    {
      "type": "VEC3",
      "componentType": 5126,
      "count": 12,
      "bufferView": 7,
      "byteOffset": 12
    },
    {
      "type": "VEC2",
      "componentType": 5126,
      "count": 12,
      "bufferView": 7,
      "byteOffset": 24
    },
    {
      "type": "VEC3",
      "componentType": 5126,
      "count": 3451,
      "max": [
        7.599999904632568,
        11.179086685180664,
        49.14730453491211
      ],
      "min": [
        -0.10000000149011612,
        -12.641218185424805,
        -56.617881774902344
      ],
      "bufferView": 8,
      "byteOffset": 0
    },
    {
      "type": "VEC3",
      "componentType": 5126,
      "count": 3451,
      "bufferView": 8,
      "byteOffset": 12
    },
    {
      "type": "VEC2",
      "componentType": 5126,
      "count": 3451,
      "bufferView": 8,
      "byteOffset": 24
    },
    {
      "type": "VEC3",
      "componentType": 5126,
      "count": 37,
      "max": [
        -3.450000047683716,
        -5,
        0.738605797290802
      ],
      "min": [
        -4.949999809265137,
        -6,
        -0.738605797290802
      ],
      "bufferView": 9,
      "byteOffset": 0
    },
    {
      "type": "VEC3",
      "componentType": 5126,
      "count": 37,
      "bufferView": 9,
      "byteOffset": 12
    },
    {
      "type": "VEC3",
      "componentType": 5126,
      "count": 124,
      "max": [
        2,
        -5,
        6
      ],
      "min": [
        -10.399999618530273,
        -6,
        -6
      ],
      "bufferView": 10,
      "byteOffset": 0
    },
    {
      "type": "VEC3",
      "componentType": 5126,
      "count": 124,
      "bufferView": 10,
      "byteOffset": 12
    },
    {
      "type": "VEC2",
      "componentType": 5126,
      "count": 124,
      "bufferView": 10,
      "byteOffset": 24
    },
    {
      "type": "VEC3",
      "componentType": 5126,
      "count": 1076,
      "max": [
        0.6499999761581421,
        12.487417221069336,
        4.650000095367432
      ],
      "min": [
        -9.050000190734863,
        -5,
        -4.650000095367432
      ],
      "bufferView": 11,
      "byteOffset": 0
    },
    {
      "type": "VEC3",
      "componentType": 5126,
      "count": 1076,
      "bufferView": 11,
      "byteOffset": 12
    },
    {
      "type": "VEC2",
      "componentType": 5126,
      "count": 1076,
      "bufferView": 11,
      "byteOffset": 24
    },
    {
      "type": "VEC3",
      "componentType": 5126,
      "count": 853,
      "max": [
        7,
        1.5,
        1.4989992380142212
      ],
      "min": [
        0,
        -1.4959983825683594,
        -1.4989992380142212
      ],
      "bufferView": 12,
      "byteOffset": 0
    },
    {
      "type": "VEC3",
      "componentType": 5126,
      "count": 853,
      "bufferView": 12,
      "byteOffset": 12
    },
    {
      "type": "VEC3",
      "componentType": 5126,
      "count": 396,
      "max": [
        8.800000190734863,
        2.5,
        5
      ],
      "min": [
        0,
        -6.800000190734863,
        -5
      ],
      "bufferView": 13,
      "byteOffset": 0
    },
    {
      "type": "VEC3",
      "componentType": 5126,
      "count": 396,
      "bufferView": 13,
      "byteOffset": 12
    },
    {
      "type": "VEC2",
      "componentType": 5126,
      "count": 396,
      "bufferView": 13,
      "byteOffset": 24
    },
    {
      "type": "VEC3",
      "componentType": 5126,
      "count": 1044,
      "max": [
        6,
        1.5,
        1.4990862607955933
      ],
      "min": [
        0,
        -1.496346116065979,
        -1.4990862607955933
      ],
      "bufferView": 14,
      "byteOffset": 0
    },
    {
      "type": "VEC3",
      "componentType": 5126,
      "count": 1044,
      "bufferView": 14,
      "byteOffset": 12
    },
    {
      "type": "VEC3",
      "componentType": 5126,
      "count": 396,
      "max": [
        9.199999809265137,
        2.493009567260742,
        2.5
      ],
      "min": [
        0,
        -6.800000190734863,
        -2.5
      ],
      "bufferView": 15,
      "byteOffset": 0
    },
    {
      "type": "VEC3",
      "componentType": 5126,
      "count": 396,
      "bufferView": 15,
      "byteOffset": 12
    },
    {
      "type": "VEC2",
      "componentType": 5126,
      "count": 396,
      "bufferView": 15,
      "byteOffset": 24
    }
  ],
  "bufferViews": [
    {
      "buffer": 0,
      "byteOffset": 0,
      "byteLength": 9504,
      "byteStride": 24,
      "target": 34962
    },
    {
      "buffer": 0,
      "byteOffset": 9504,
      "byteLength": 142992,
      "target": 34963
    },
    {
      "buffer": 0,
      "byteOffset": 152496,
      "byteLength": 15936,
      "byteStride": 32,
      "target": 34962
    },
    {
      "buffer": 0,
      "byteOffset": 168432,
      "byteLength": 9072,
      "byteStride": 24,
      "target": 34962
    },
    {
      "buffer": 0,
      "byteOffset": 177504,
      "byteLength": 15296,
      "byteStride": 32,
      "target": 34962
    },
    {
      "buffer": 0,
      "byteOffset": 192800,
      "byteLength": 11904,
      "byteStride": 32,
      "target": 34962
    },
    {
      "buffer": 0,
      "byteOffset": 204704,
      "byteLength": 2880,
      "byteStride": 24,
      "target": 34962
    },
    {
      "buffer": 0,
      "byteOffset": 207584,
      "byteLength": 384,
      "byteStride": 32,
      "target": 34962
    },
    {
      "buffer": 0,
      "byteOffset": 207968,
      "byteLength": 110432,
      "byteStride": 32,
      "target": 34962
    },
    {
      "buffer": 0,
      "byteOffset": 318400,
      "byteLength": 888,
      "byteStride": 24,
      "target": 34962
    },
    {
      "buffer": 0,
      "byteOffset": 319288,
      "byteLength": 3968,
      "byteStride": 32,
      "target": 34962
    },
    {
      "buffer": 0,
      "byteOffset": 323256,
      "byteLength": 34432,
      "byteStride": 32,
      "target": 34962
    },
    {
      "buffer": 0,
      "byteOffset": 357688,
      "byteLength": 20472,
      "byteStride": 24,
      "target": 34962
    },
    {
      "buffer": 0,
      "byteOffset": 378160,
      "byteLength": 12672,
      "byteStride": 32,
      "target": 34962
    },
    {
      "buffer": 0,
      "byteOffset": 390832,
      "byteLength": 25056,
      "byteStride": 24,
      "target": 34962
    },
    {
      "buffer": 0,
      "byteOffset": 415888,
      "byteLength": 12672,
      "byteStride": 32,
      "target": 34962
    },
    {
      "buffer": 0,
      "byteOffset": 428560,
      "byteLength": 59154
    },
    {
      "buffer": 0,
      "byteOffset": 487720,
      "byteLength": 64251
    },
    {
      "buffer": 0,
      "byteOffset": 551976,
      "byteLength": 59154
    },
    {
      "buffer": 0,
      "byteOffset": 611136,
      "byteLength": 89923
    }
  ],
  "samplers": [
    {
      "magFilter": 9729,
      "minFilter": 9987,
      "wrapS": 10497,
      "wrapT": 10497
    }
  ],
  "textures": [
    {
      "source": 0,
      "sampler": 0
    },
    {
      "source": 1,
      "sampler": 0
    },
    {
      "source": 2,
      "sampler": 0
    },
    {
      "source": 3,
      "sampler": 0
    }
  ],
  "images": [
    {
      "name": "image_0",
      "mimeType": "image/png",
      "bufferView": 16
    },
    {
      "name": "image_1",
      "mimeType": "image/png",
      "bufferView": 17
    },
    {
      "name": "image_2",
      "mimeType": "image/png",
      "bufferView": 18
    },
    {
      "name": "image_3",
      "mimeType": "image/png",
      "bufferView": 19
    }
  ],
  "buffers": [
    {
      "name": "real_flatten",
      "byteLength": 701064,
      "uri": "data:application/octet-stream;base64,"
    }
  ],
  "materials": [
    {
      "name": "Default",
      "doubleSided": true,
      "pbrMetallicRoughness": {
        "baseColorFactor": [
          0.52252197265625,
          0.52252197265625,
          0.52252197265625,
          1
        ],
        "roughnessFactor": 0.699999988079071,
        "metallicFactor": 0
      },
      "emissiveFactor": [
        0,
        0,
        0
      ],
      "alphaMode": "OPAQUE"
    },
    {
      "name": "IronCast",
      "doubleSided": true,
      "pbrMetallicRoughness": {
        "roughnessFactor": 0.949999988079071,
        "metallicFactor": 0,
        "baseColorTexture": {
          "index": 0,
          "texCoord": 0
        },
        "baseColorFactor": [
          1,
          1,
          1,
          1
        ]
      },
      "normalTexture": {
        "index": 1,
        "texCoord": 0
      },
      "emissiveFactor": [
        0,
        0,
        0
      ],
      "alphaMode": "OPAQUE"
    },
    {
      "name": "Steel",
      "doubleSided": true,
      "pbrMetallicRoughness": {
        "baseColorFactor": [
          0.7454040050506592,
          0.7379109859466553,
          0.7083759903907776,
          1
        ],
        "roughnessFactor": 0.800000011920929,
        "metallicFactor": 0
      },
      "emissiveFactor": [
        0,
        0,
        0
      ],
      "alphaMode": "OPAQUE"
    },
    {
      "name": "SteelCast",
      "doubleSided": true,
      "pbrMetallicRoughness": {
        "roughnessFactor": 0.6000000238418579,
        "metallicFactor": 0,
        "baseColorTexture": {
          "index": 2,
          "texCoord": 0
        },
        "baseColorFactor": [
          1,
          1,
          1,
          1
        ]
      },
      "emissiveFactor": [
        0,
        0,
        0
      ],
      "alphaMode": "OPAQUE"
    },
    {
      "name": "SteelBlue",
      "doubleSided": true,
      "pbrMetallicRoughness": {
        "baseColorFactor": [
          0.2957000136375427,
          0.3800559937953949,
          0.47699999809265137,
          1
        ],
        "roughnessFactor": 0.42500001192092896,
        "metallicFactor": 0
      },
      "normalTexture": {
        "index": 3,
        "texCoord": 0
      },
      "emissiveFactor": [
        0,
        0,
        0
      ],
      "alphaMode": "OPAQUE"
    },
    {
      "name": "RubberBlack",
      "doubleSided": true,
      "pbrMetallicRoughness": {
        "baseColorFactor": [
          0.05087609961628914,
          0.05087609961628914,
          0.05087609961628914,
          1
        ],
        "roughnessFactor": 0.75,
        "metallicFactor": 0
      },
      "emissiveFactor": [
        0,
        0,
        0
      ],
      "alphaMode": "OPAQUE"
    }
  ],
  "meshes": [
    {
      "name": "meshes[2]",
      "primitives": [
        {
          "attributes": {
            "POSITION": 0,
            "NORMAL": 1
          },
          "mode": 4,
          "material": 2,
          "indices": 2
        }
      ]
    },
    {
      "name": "meshes[3]",
      "primitives": [
        {
          "attributes": {
            "POSITION": 17,
            "NORMAL": 18,
            "TEXCOORD_0": 19
          },
          "mode": 4,
          "material": 3,
          "indices": 3
        }
      ]
    },
    {
      "name": "meshes[6]",
      "primitives": [
        {
          "attributes": {
            "POSITION": 20,
            "NORMAL": 21
          },
          "mode": 4,
          "material": 2,
          "indices": 4
        }
      ]
    },
    {
      "name": "meshes[7]",
      "primitives": [
        {
          "attributes": {
            "POSITION": 22,
            "NORMAL": 23,
            "TEXCOORD_0": 24
          },
          "mode": 4,
          "material": 3,
          "indices": 5
        }
      ]
    },
    {
      "name": "meshes[13]",
      "primitives": [
        {
          "attributes": {
            "POSITION": 25,
            "NORMAL": 26,
            "TEXCOORD_0": 27
          },
          "mode": 4,
          "material": 4,
          "indices": 6
        }
      ]
    },
    {
      "name": "meshes[0]",
      "primitives": [
        {
          "attributes": {
            "POSITION": 28,
            "NORMAL": 29
          },
          "mode": 4,
          "material": 0,
          "indices": 7
        }
      ]
    },
    {
      "name": "meshes[1]",
      "primitives": [
        {
          "attributes": {
            "POSITION": 30,
            "NORMAL": 31,
            "TEXCOORD_0": 32
          },
          "mode": 1,
          "material": 1,
          "indices": 8
        },
        {
          "attributes": {
            "POSITION": 33,
            "NORMAL": 34,
            "TEXCOORD_0": 35
          },
          "mode": 4,
          "material": 1,
          "indices": 9
        }
      ]
    },
    {
      "name": "meshes[10]",
      "primitives": [
        {
          "attributes": {
            "POSITION": 36,
            "NORMAL": 37
          },
          "mode": 4,
          "material": 0,
          "indices": 10
        }
      ]
    },
    {
      "name": "meshes[11]",
      "primitives": [
        {
          "attributes": {
            "POSITION": 38,
            "NORMAL": 39,
            "TEXCOORD_0": 40
          },
          "mode": 4,
          "material": 1,
          "indices": 11
        }
      ]
    },
    {
      "name": "meshes[12]",
      "primitives": [
        {
          "attributes": {
            "POSITION": 41,
            "NORMAL": 42,
            "TEXCOORD_0": 43
          },
          "mode": 4,
          "material": 3,
          "indices": 12
        }
      ]
    },
    {
      "name": "meshes[15]",
      "primitives": [
        {
          "attributes": {
            "POSITION": 44,
            "NORMAL": 45
          },
          "mode": 4,
          "material": 5,
          "indices": 13
        }
      ]
    },
    {
      "name": "meshes[16]",
      "primitives": [
        {
          "attributes": {
            "POSITION": 46,
            "NORMAL": 47,
            "TEXCOORD_0": 48
          },
          "mode": 4,
          "material": 3,
          "indices": 14
        }
      ]
    },
    {
      "name": "meshes[17]",
      "primitives": [
        {
          "attributes": {
            "POSITION": 49,
            "NORMAL": 50
          },
          "mode": 4,
          "material": 5,
          "indices": 15
        }
      ]
    },
    {
      "name": "meshes[18]",
      "primitives": [
        {
          "attributes": {
            "POSITION": 51,
            "NORMAL": 52,
            "TEXCOORD_0": 53
          },
          "mode": 4,
          "material": 3,
          "indices": 16
        }
      ]
    }
  ],
  "nodes": [
    {
      "name": "Solid1009",
      "translation": [
        -0.03800000250339508,
        0.08753058314323425,
        -0.017869576811790466
      ],
      "scale": [
        0.009999999776482582,
        0.009999999776482582,
        0.009999999776482582
      ],
      "mesh": 5,
      "rotation": [
        0,
        0,
        0,
        1
      ]
    },
    {
      "name": "Solid1009_1",
      "translation": [
        -0.03800000250339508,
        0.08753058314323425,
        -0.017869576811790466
      ],
      "scale": [
        0.009999999776482582,
        0.009999999776482582,
        0.009999999776482582
      ],
      "mesh": 6,
      "rotation": [
        0,
        0,
        0,
        1
      ]
    },
    {
      "name": "Solid1010",
      "translation": [
        0.04599999636411667,
        0.05081334710121155,
        0.26273447275161743
      ],
      "rotation": [
        -0.07724098092731618,
        0,
        0,
        0.9970124527132979
      ],
      "scale": [
        0.009999999776482582,
        0.009999999096428173,
        0.009999999096428173
      ],
      "mesh": 0
    },
    {
      "name": "Solid1010_1",
      "translation": [
        0.04599999636411667,
        0.05081334710121155,
        0.26273447275161743
      ],
      "rotation": [
        -0.07724098092731618,
        0,
        0,
        0.9970124527132979
      ],
      "scale": [
        0.009999999776482582,
        0.009999999096428173,
        0.009999999096428173
      ],
      "mesh": 1
    },
    {
      "name": "Solid1010_node",
      "translation": [
        0.04599999636411667,
        0.05392804741859436,
        -0.2920227646827698
      ],
      "rotation": [
        0.08654722487724356,
        0,
        0,
        0.9962477492401415
      ],
      "scale": [
        0.009999999776482582,
        0.009999999691854706,
        0.009999999691854706
      ],
      "mesh": 0
    },
    {
      "name": "Solid1010_1_node",
      "translation": [
        0.04599999636411667,
        0.05392804741859436,
        -0.2920227646827698
      ],
      "rotation": [
        0.08654722487724356,
        0,
        0,
        0.9962477492401415
      ],
      "scale": [
        0.009999999776482582,
        0.009999999691854706,
        0.009999999691854706
      ],
      "mesh": 1
    },
    {
      "name": "Solid1011",
      "translation": [
        0.04599999636411667,
        0.020752929151058197,
        0.10785932838916779
      ],
      "rotation": [
        -0.040829263676278045,
        0,
        0,
        0.999166137950868
      ],
      "scale": [
        0.009999999776482582,
        0.009999999898233884,
        0.009999999898233884
      ],
      "mesh": 2
    },
    {
      "name": "Solid1011_1",
      "translation": [
        0.04599999636411667,
        0.020752929151058197,
        0.10785932838916779
      ],
      "rotation": [
        -0.040829263676278045,
        0,
        0,
        0.999166137950868
      ],
      "scale": [
        0.009999999776482582,
        0.009999999898233884,
        0.009999999898233884
      ],
      "mesh": 3
    },
    {
      "name": "Solid1011_node",
      "translation": [
        0.04599999636411667,
        0.0207531601190567,
        -0.14352962374687195
      ],
      "rotation": [
        0.0389982974191276,
        0,
        0,
        0.9992392770495009
      ],
      "scale": [
        0.009999999776482582,
        0.00999999967789274,
        0.00999999967789274
      ],
      "mesh": 2
    },
    {
      "name": "Solid1011_1_node",
      "translation": [
        0.04599999636411667,
        0.0207531601190567,
        -0.14352962374687195
      ],
      "rotation": [
        0.0389982974191276,
        0,
        0,
        0.9992392770495009
      ],
      "scale": [
        0.009999999776482582,
        0.00999999967789274,
        0.00999999967789274
      ],
      "mesh": 3
    },
    {
      "name": "Solid2_1",
      "translation": [
        -0.04200000315904617,
        0.01053057610988617,
        -0.017869561910629272
      ],
      "rotation": [
        0,
        1,
        0,
        -4.926614671774132e-16
      ],
      "scale": [
        0.009999999776482582,
        0.009999999776482582,
        0.009999999776482582
      ],
      "mesh": 7
    },
    {
      "name": "Solid2_2",
      "translation": [
        -0.04200000315904617,
        0.01053057610988617,
        -0.017869561910629272
      ],
      "rotation": [
        0,
        1,
        0,
        -4.926614671774132e-16
      ],
      "scale": [
        0.009999999776482582,
        0.009999999776482582,
        0.009999999776482582
      ],
      "mesh": 8
    },
    {
      "name": "Solid2_3",
      "translation": [
        -0.04200000315904617,
        0.01053057610988617,
        -0.017869561910629272
      ],
      "rotation": [
        0,
        1,
        0,
        -4.926614671774132e-16
      ],
      "scale": [
        0.009999999776482582,
        0.009999999776482582,
        0.009999999776482582
      ],
      "mesh": 9
    },
    {
      "name": "Solid2001",
      "extras": {
        "name": "Solid2.001"
      },
      "translation": [
        0.038999997079372406,
        0.17684286832809448,
        -0.617424726486206
      ],
      "rotation": [
        -0.3537057232281975,
        -0.6122846597167063,
        0.35370574157380125,
        0.612284272059909
      ],
      "scale": [
        0.01000000391862791,
        0.010000001820825414,
        0.010000003042775459
      ],
      "mesh": 4
    },
    {
      "name": "Solid2002",
      "extras": {
        "name": "Solid2.002"
      },
      "translation": [
        -0.039000004529953,
        0.22015655040740967,
        -0.5924462676048279
      ],
      "rotation": [
        -0.3537057232281975,
        0.6122846597167063,
        -0.35370574157380125,
        0.612284272059909
      ],
      "scale": [
        0.01000000391862791,
        0.010000001820825414,
        0.010000003042775459
      ],
      "mesh": 4
    },
    {
      "name": "Solid1032",
      "extras": {
        "name": "Solid1.032"
      },
      "translation": [
        -0.0351581834256649,
        0.16932275891304016,
        -0.5543413758277893
      ],
      "rotation": [
        -0.5111163348778485,
        0,
        0,
        0.8595115428084925
      ],
      "scale": [
        0.009999999776482582,
        0.010000000052656414,
        0.010000000052656414
      ],
      "mesh": 10
    },
    {
      "name": "Solid1033",
      "extras": {
        "name": "Solid1.033"
      },
      "translation": [
        -0.04399999976158142,
        0.2242753803730011,
        -0.6496315002441406
      ],
      "rotation": [
        0.9999534360894969,
        0,
        0,
        -0.009650163356566238
      ],
      "scale": [
        0.009999999776482582,
        0.009999999309199762,
        0.009999999309199762
      ],
      "mesh": 11
    },
    {
      "name": "Solid1034",
      "extras": {
        "name": "Solid1.034"
      },
      "translation": [
        -0.031526725739240646,
        0.2242753803730011,
        -0.6496315002441406
      ],
      "rotation": [
        -0.7066531777735172,
        0,
        0,
        0.7075600938030563
      ],
      "scale": [
        0.009999999776482582,
        0.01000000025284599,
        0.01000000025284599
      ],
      "mesh": 12
    },
    {
      "name": "Solid1035",
      "extras": {
        "name": "Solid1.035"
      },
      "translation": [
        -0.046000003814697266,
        0.1225709319114685,
        0.43561506271362305
      ],
      "rotation": [
        0.9999999999999967,
        0,
        0,
        -8.19563865661613e-8
      ],
      "scale": [
        0.009999999776482582,
        0.009999999776482716,
        0.009999999776482716
      ],
      "mesh": 13
    }
  ],
  "scenes": [
    {
      "nodes": [
        0,
        1,
        2,
        3,
        4,
        5,
        6,
        7,
        8,
        9,
        10,
        11,
        12,
        13,
        14,
        15,
        16,
        17,
        18
      ]
    }
  ],
  "scene": 0,
  "extensionsUsed": [
    "KHR_materials_volume"
  ]
}
