{
  "asset": {
    "generator": "glTF-Transform v4.3.0",
    "version": "2.0"
  },
  "accessors": [
    {
      "type": "VEC3",
      "componentType": 5126,
      "count": 2108,
      "max": [
        2.050764799118042,
        6.199999809265137,
        0.27000001072883606
      ],
      "min": [
        -2.050764799118042,
        0,
        0
      ],
      "bufferView": 0,
      "byteOffset": 0
    },
    {
      "type": "VEC3",
      "componentType": 5126,
      "count": 2108,
      "bufferView": 0,
      "byteOffset": 12
    },
    {
      "type": "SCALAR",
      "componentType": 5125,
      "count": 5808,
      "bufferView": 1,
      "byteOffset": 0
    },
    {
      "type": "VEC3",
      "componentType": 5126,
      "count": 523,
      "max": [
        1.2000000476837158,
        0.5,
        0
      ],
      "min": [
        0,
        -0.30000001192092896,
        -2
      ],
      "bufferView": 2,
      "byteOffset": 0
    },
    {
      "type": "VEC3",
      "componentType": 5126,
      "count": 523,
      "bufferView": 2,
      "byteOffset": 12
    },
    {
      "type": "SCALAR",
      "componentType": 5125,
      "count": 1512,
      "bufferView": 3,
      "byteOffset": 0
    },
    {
      "type": "VEC3",
      "componentType": 5126,
      "count": 3808,
      "max": [
        0.15000000596046448,
        1.459807276725769,
        1.459807276725769
      ],
      "min": [
        -0.15000000596046448,
        -1.459807276725769,
        -3.5
      ],
      "bufferView": 4,
      "byteOffset": 0
    },
    {
      "type": "VEC3",
      "componentType": 5126,
      "count": 3808,
      "bufferView": 4,
      "byteOffset": 12
    },
    {
      "type": "VEC2",
      "componentType": 5126,
      "count": 3808,
      "bufferView": 4,
      "byteOffset": 24
    },
    {
      "type": "SCALAR",
      "componentType": 5125,
      "count": 11118,
      "bufferView": 5,
      "byteOffset": 0
    },
    {
      "type": "VEC3",
      "componentType": 5126,
      "count": 3605,
      "max": [
        3.4712579250335693,
        1.459807276725769,
        0.30000001192092896
      ],
      "min": [
        -1.459807276725769,
        -1.208551287651062,
        0
      ],
      "bufferView": 6,
      "byteOffset": 0
    },
    {
      "type": "VEC3",
      "componentType": 5126,
      "count": 3605,
      "bufferView": 6,
      "byteOffset": 12
    },
    {
      "type": "SCALAR",
      "componentType": 5125,
      "count": 10668,
      "bufferView": 7,
      "byteOffset": 0
    },
    {
      "type": "VEC3",
      "componentType": 5126,
      "count": 858,
      "max": [
        0.5199999809265137,
        0.25,
        0.24984771013259888
      ],
      "min": [
        -0.5199999809265137,
        -0.24939101934432983,
        -0.24984771013259888
      ],
      "bufferView": 8,
      "byteOffset": 0
    },
    {
      "type": "VEC3",
      "componentType": 5126,
      "count": 858,
      "bufferView": 8,
      "byteOffset": 12
    },
    {
      "type": "SCALAR",
      "componentType": 5125,
      "count": 2520,
      "bufferView": 9,
      "byteOffset": 0
    },
    {
      "type": "VEC3",
      "componentType": 5126,
      "count": 1320,
      "max": [
        3.2214889526367188,
        2.040644884109497,
        0.27000001072883606
      ],
      "min": [
        -2.644260883331299,
        0,
        -0.27000001072883606
      ],
      "bufferView": 10,
      "byteOffset": 0
    },
    {
      "type": "VEC3",
      "componentType": 5126,
      "count": 1320,
      "bufferView": 10,
      "byteOffset": 12
    },
    {
      "type": "VEC2",
      "componentType": 5126,
      "count": 1320,
      "bufferView": 10,
      "byteOffset": 24
    },
    {
      "type": "SCALAR",
      "componentType": 5125,
      "count": 4188,
      "bufferView": 11,
      "byteOffset": 0
    },
    {
      "type": "VEC3",
      "componentType": 5126,
      "count": 1172,
      "max": [
        0.15000000596046448,
        0.3499254584312439,
        1.8981326818466187
      ],
      "min": [
        -0.15000000596046448,
        -0.3499254584312439,
        -1.8981326818466187
      ],
      "bufferView": 12,
      "byteOffset": 0
    },
    {
      "type": "VEC3",
      "componentType": 5126,
      "count": 1172,
      "bufferView": 12,
      "byteOffset": 12
    },
    {
      "type": "VEC2",
      "componentType": 5126,
      "count": 1172,
      "bufferView": 12,
      "byteOffset": 24
    },
    {
      "type": "SCALAR",
      "componentType": 5125,
      "count": 3504,
      "bufferView": 13,
      "byteOffset": 0
    },
    {
      "type": "VEC3",
      "componentType": 5126,
      "count": 1502,
      "max": [
        1.1399999856948853,
        0.875,
        0.874667763710022
      ],
      "min": [
        0,
        -0.8736713528633118,
        -0.874667763710022
      ],
      "bufferView": 14,
      "byteOffset": 0
    },
    {
      "type": "VEC3",
      "componentType": 5126,
      "count": 1502,
      "bufferView": 14,
      "byteOffset": 12
    },
    {
      "type": "SCALAR",
      "componentType": 5125,
      "count": 4176,
      "bufferView": 15,
      "byteOffset": 0
    }
  ],
  "bufferViews": [
    {
      "buffer": 0,
      "byteOffset": 0,
      "byteLength": 50592,
      "byteStride": 24,
      "target": 34962
    },
    {
      "buffer": 0,
      "byteOffset": 50592,
      "byteLength": 23232,
      "target": 34963
    },
    {
      "buffer": 1,
      "byteOffset": 0,
      "byteLength": 12552,
      "byteStride": 24,
      "target": 34962
    },
    {
      "buffer": 1,
      "byteOffset": 12552,
      "byteLength": 6048,
      "target": 34963
    },
    {
      "buffer": 2,
      "byteOffset": 0,
      "byteLength": 121856,
      "byteStride": 32,
      "target": 34962
    },
    {
      "buffer": 2,
      "byteOffset": 121856,
      "byteLength": 44472,
      "target": 34963
    },
    {
      "buffer": 3,
      "byteOffset": 0,
      "byteLength": 86520,
      "byteStride": 24,
      "target": 34962
    },
    {
      "buffer": 3,
      "byteOffset": 86520,
      "byteLength": 42672,
      "target": 34963
    },
    {
      "buffer": 4,
      "byteOffset": 0,
      "byteLength": 20592,
      "byteStride": 24,
      "target": 34962
    },
    {
      "buffer": 4,
      "byteOffset": 20592,
      "byteLength": 10080,
      "target": 34963
    },
    {
      "buffer": 5,
      "byteOffset": 0,
      "byteLength": 42240,
      "byteStride": 32,
      "target": 34962
    },
    {
      "buffer": 5,
      "byteOffset": 42240,
      "byteLength": 16752,
      "target": 34963
    },
    {
      "buffer": 6,
      "byteOffset": 0,
      "byteLength": 37504,
      "byteStride": 32,
      "target": 34962
    },
    {
      "buffer": 6,
      "byteOffset": 37504,
      "byteLength": 14016,
      "target": 34963
    },
    {
      "buffer": 7,
      "byteOffset": 0,
      "byteLength": 36048,
      "byteStride": 24,
      "target": 34962
    },
    {
      "buffer": 7,
      "byteOffset": 36048,
      "byteLength": 16704,
      "target": 34963
    }
  ],
  "samplers": [
    {
      "magFilter": 9729,
      "minFilter": 9729,
      "wrapS": 10497,
      "wrapT": 10497
    }
  ],
  "textures": [
    {
      "source": 0,
      "sampler": 0
    }
  ],
  "images": [
    {
      "name": "MetalsOrnamentalMetalsAluminumBrushed_normalmap.png",
      "mimeType": "image/png",
      "uri": "normal.png"
    }
  ],
  "buffers": [
    {
      "uri": "Robot_Gripper_Restored_1.bin",
      "byteLength": 73824
    },
    {
      "uri": "Robot_Gripper_Restored_2.bin",
      "byteLength": 18600
    },
    {
      "uri": "Robot_Gripper_Restored_3.bin",
      "byteLength": 166328
    },
    {
      "uri": "Robot_Gripper_Restored_4.bin",
      "byteLength": 129192
    },
    {
      "uri": "Robot_Gripper_Restored_5.bin",
      "byteLength": 30672
    },
    {
      "uri": "Robot_Gripper_Restored_6.bin",
      "byteLength": 58992
    },
    {
      "uri": "Robot_Gripper_Restored_7.bin",
      "byteLength": 51520
    },
    {
      "uri": "Robot_Gripper_Restored_8.bin",
      "byteLength": 52752
    }
  ],
  "materials": [
    {
      "name": "ChromePolishedBlack",
      "doubleSided": true,
      "pbrMetallicRoughness": {
        "baseColorFactor": [
          0.4178850054740906,
          0.4178850054740906,
          0.4178850054740906,
          1
        ],
        "roughnessFactor": 0.10000000149011612
      }
    },
    {
      "name": "ChromePolishedBlue",
      "doubleSided": true,
      "pbrMetallicRoughness": {
        "baseColorFactor": [
          0.44520100951194763,
          0.4735319912433624,
          0.838798999786377,
          1
        ],
        "roughnessFactor": 0.10000000149011612
      }
    },
    {
      "name": "OrangeRed",
      "doubleSided": true,
      "pbrMetallicRoughness": {
        "baseColorFactor": [
          0.46778398752212524,
          0.006048830226063728,
          0.003676509950309992,
          1
        ],
        "roughnessFactor": 0.42500001192092896,
        "metallicFactor": 0
      },
      "normalTexture": {
        "index": 0,
        "extensions": {
          "KHR_texture_transform": {
            "rotation": 1.5707963705062866,
            "scale": [
              0.007874015718698502,
              0.001312335953116417
            ]
          }
        }
      }
    },
    {
      "name": "Orange",
      "doubleSided": true,
      "pbrMetallicRoughness": {
        "baseColorFactor": [
          0.7236829996109009,
          0.2031019926071167,
          0.004694419912993908,
          1
        ],
        "roughnessFactor": 0.699999988079071,
        "metallicFactor": 0
      }
    },
    {
      "name": "ChromePolished",
      "doubleSided": true,
      "pbrMetallicRoughness": {
        "baseColorFactor": [
          0.9049559831619263,
          0.9049559831619263,
          0.9049559831619263,
          1
        ],
        "roughnessFactor": 0.07999999821186066
      }
    },
    {
      "name": "LightRed",
      "doubleSided": true,
      "pbrMetallicRoughness": {
        "baseColorFactor": [
          0.7874119877815247,
          0.013411699794232845,
          0.013411699794232845,
          1
        ],
        "roughnessFactor": 0.42500001192092896,
        "metallicFactor": 0
      },
      "normalTexture": {
        "index": 0,
        "extensions": {
          "KHR_texture_transform": {
            "rotation": 1.5707963705062866,
            "scale": [
              0.007874015718698502,
              0.001312335953116417
            ]
          }
        }
      }
    },
    {
      "name": "Cyan",
      "doubleSided": true,
      "pbrMetallicRoughness": {
        "baseColorFactor": [
          0.029556799679994583,
          0.2422810047864914,
          0.7681509852409363,
          1
        ],
        "roughnessFactor": 0.42500001192092896,
        "metallicFactor": 0
      },
      "normalTexture": {
        "index": 0,
        "extensions": {
          "KHR_texture_transform": {
            "rotation": 1.5707963705062866,
            "scale": [
              0.007874015718698502,
              0.001312335953116417
            ]
          }
        }
      }
    },
    {
      "name": "GlossyBlack",
      "doubleSided": true,
      "pbrMetallicRoughness": {
        "baseColorFactor": [
          0,
          0,
          0,
          1
        ],
        "roughnessFactor": 0.6600000262260437,
        "metallicFactor": 0.75
      },
      "extensions": {
        "KHR_materials_clearcoat": {
          "clearcoatFactor": 1,
          "clearcoatRoughnessFactor": 0.10000000149011612
        }
      }
    }
  ],
  "meshes": [
    {
      "name": "Solid1",
      "primitives": [
        {
          "attributes": {
            "NORMAL": 1,
            "POSITION": 0
          },
          "mode": 4,
          "material": 0,
          "indices": 2
        }
      ]
    },
    {
      "name": "Solid1",
      "primitives": [
        {
          "attributes": {
            "NORMAL": 4,
            "POSITION": 3
          },
          "mode": 4,
          "material": 1,
          "indices": 5
        }
      ]
    },
    {
      "name": "Solid1",
      "primitives": [
        {
          "attributes": {
            "NORMAL": 7,
            "POSITION": 6,
            "TEXCOORD_0": 8
          },
          "mode": 4,
          "material": 2,
          "indices": 9
        }
      ]
    },
    {
      "name": "Solid1",
      "primitives": [
        {
          "attributes": {
            "NORMAL": 11,
            "POSITION": 10
          },
          "mode": 4,
          "material": 3,
          "indices": 12
        }
      ]
    },
    {
      "name": "Solid1",
      "primitives": [
        {
          "attributes": {
            "NORMAL": 14,
            "POSITION": 13
          },
          "mode": 4,
          "material": 4,
          "indices": 15
        }
      ]
    },
    {
      "name": "Solid1",
      "primitives": [
        {
          "attributes": {
            "NORMAL": 17,
            "POSITION": 16,
            "TEXCOORD_0": 18
          },
          "mode": 4,
          "material": 5,
          "indices": 19
        }
      ]
    },
    {
      "name": "Solid1",
      "primitives": [
        {
          "attributes": {
            "NORMAL": 21,
            "POSITION": 20,
            "TEXCOORD_0": 22
          },
          "mode": 4,
          "material": 6,
          "indices": 23
        }
      ]
    },
    {
      "name": "Solid1",
      "primitives": [
        {
          "attributes": {
            "NORMAL": 25,
            "POSITION": 24
          },
          "mode": 4,
          "material": 7,
          "indices": 26
        }
      ]
    }
  ],
  "nodes": [
    {
      "name": "Solid1",
      "scale": [
        0.01,
        0.01,
        0.01
      ],
      "mesh": 0
    },
    {
      "name": "Base_Plate1",
      "translation": [
        -0.03614417091012001,
        0.0064497701823711395,
        -0.028200728818774223
      ],
      "rotation": [
        0.3127103561520141,
        0.6199346695614708,
        0.6562162017892895,
        -0.29542093454680945
      ],
      "children": [
        0
      ]
    },
    {
      "name": "Solid1",
      "scale": [
        0.01,
        0.01,
        0.01
      ],
      "mesh": 0
    },
    {
      "name": "Base_Plate2",
      "translation": [
        -0.036263320595026016,
        0.003754131495952606,
        -0.02829735539853573
      ],
      "rotation": [
        0.3127103561520141,
        0.6199346695614708,
        0.6562162017892895,
        -0.29542093454680945
      ],
      "children": [
        2
      ]
    },
    {
      "name": "Solid1",
      "scale": [
        0.01,
        0.01,
        0.01
      ],
      "mesh": 1
    },
    {
      "name": "Base_Mounting_bracket1",
      "translation": [
        -0.04628574103116989,
        0.012440547347068787,
        -0.023550184443593025
      ],
      "rotation": [
        0.009496070939747995,
        -0.3340098479057824,
        -0.02678555999551264,
        0.942141061581744
      ],
      "children": [
        4
      ]
    },
    {
      "name": "Solid1",
      "scale": [
        0.01,
        0.01,
        0.01
      ],
      "mesh": 2
    },
    {
      "name": "Gear_link_11",
      "translation": [
        -0.015305641107261181,
        0.008506737649440765,
        0.006080083083361387
      ],
      "rotation": [
        -0.6336337158460893,
        0.6514635024194976,
        0.3125048556940139,
        -0.27648567013794934
      ],
      "children": [
        6
      ]
    },
    {
      "name": "Solid1",
      "scale": [
        0.01,
        0.01,
        0.01
      ],
      "mesh": 3
    },
    {
      "name": "Gear_link_21",
      "translation": [
        0.0017672395333647728,
        0.01000431552529335,
        -0.0148369912058115
      ],
      "rotation": [
        0.6911449512545519,
        -0.20052937335608614,
        0.16384330283784015,
        0.674731068421252
      ],
      "children": [
        8
      ]
    },
    {
      "name": "Solid1",
      "scale": [
        0.01,
        0.01,
        0.01
      ],
      "mesh": 4
    },
    {
      "name": "Pin1",
      "translation": [
        0.0015819026157259941,
        0.005811098963022232,
        -0.01498729269951582
      ],
      "rotation": [
        -0.2253790140935235,
        -0.2390339759176705,
        0.6486900528604789,
        0.6864898254938979
      ],
      "children": [
        10
      ]
    },
    {
      "name": "Solid1",
      "scale": [
        0.01,
        0.01,
        0.01
      ],
      "mesh": 4
    },
    {
      "name": "Pin2",
      "translation": [
        -0.015424787066876888,
        0.005811098963022232,
        0.005983459763228893
      ],
      "rotation": [
        -0.22946586813252565,
        -0.24289533853250483,
        0.6472541745355211,
        0.6851345191689064
      ],
      "children": [
        12
      ]
    },
    {
      "name": "Solid1",
      "scale": [
        0.01,
        0.01,
        0.01
      ],
      "mesh": 4
    },
    {
      "name": "Pin3",
      "translation": [
        0.0055969757959246635,
        0.004652068018913269,
        0.012396705336868763
      ],
      "rotation": [
        -0.2253790140935235,
        -0.2390339759176705,
        0.6486900528604789,
        0.6864898254938979
      ],
      "children": [
        14
      ]
    },
    {
      "name": "Solid1",
      "scale": [
        0.01,
        0.01,
        0.01
      ],
      "mesh": 4
    },
    {
      "name": "Pin4",
      "translation": [
        0.026172524318099022,
        0.004050809890031815,
        0.0037993527948856354
      ],
      "rotation": [
        -0.34952945741551716,
        -0.35589060053196236,
        0.5926872207770174,
        0.6323709032496296
      ],
      "children": [
        16
      ]
    },
    {
      "name": "Solid1",
      "scale": [
        0.01,
        0.01,
        0.01
      ],
      "mesh": 4
    },
    {
      "name": "Pin5",
      "translation": [
        0.029026994481682777,
        0.0028916262090206146,
        0.03261883929371834
      ],
      "rotation": [
        -0.12121218295204142,
        -0.14031536301654954,
        0.676939967859734,
        0.7123001404134129
      ],
      "children": [
        18
      ]
    },
    {
      "name": "Solid1",
      "scale": [
        0.01,
        0.01,
        0.01
      ],
      "mesh": 4
    },
    {
      "name": "Pin6",
      "translation": [
        0.012198090553283691,
        0.004652068018913269,
        0.004256946966052055
      ],
      "rotation": [
        -0.2253790140935235,
        -0.2390339759176705,
        0.6486900528604789,
        0.6864898254938979
      ],
      "children": [
        20
      ]
    },
    {
      "name": "Solid1",
      "scale": [
        0.01,
        0.01,
        0.01
      ],
      "mesh": 4
    },
    {
      "name": "Pin7",
      "translation": [
        0.008019511587917805,
        0.0040506161749362946,
        0.026189034804701805
      ],
      "rotation": [
        0.007994685868177661,
        -0.017118484410752876,
        0.6911172282930788,
        0.7224956880795042
      ],
      "children": [
        22
      ]
    },
    {
      "name": "Solid1",
      "scale": [
        0.01,
        0.01,
        0.01
      ],
      "mesh": 4
    },
    {
      "name": "Pin8",
      "translation": [
        0.03681130334734917,
        0.0028915926814079285,
        0.023021025583148003
      ],
      "rotation": [
        -0.0709776099430236,
        -0.09251275176225045,
        0.6851112232717622,
        0.7190453257297689
      ],
      "children": [
        24
      ]
    },
    {
      "name": "Solid1",
      "scale": [
        0.01,
        0.01,
        0.01
      ],
      "mesh": 5
    },
    {
      "name": "Gripper1",
      "translation": [
        0.03211788088083267,
        0.0015281885862350464,
        0.024929899722337723
      ],
      "rotation": [
        -0.6060205740102879,
        -0.3388890923936519,
        -0.37863409264016906,
        0.6119881311932927
      ],
      "children": [
        26
      ]
    },
    {
      "name": "Solid1",
      "scale": [
        0.01,
        0.01,
        0.01
      ],
      "mesh": 5
    },
    {
      "name": "Gripper2",
      "translation": [
        0.029923101887106895,
        0.0015283450484275818,
        0.02763192728161812
      ],
      "rotation": [
        0.709215641191375,
        -0.1220921682592823,
        0.08746848564334483,
        0.6888076246475996
      ],
      "children": [
        28
      ]
    },
    {
      "name": "Solid1",
      "scale": [
        0.01,
        0.01,
        0.01
      ],
      "mesh": 6
    },
    {
      "name": "Link1",
      "translation": [
        0.01743112877011299,
        0.006467483937740326,
        0.02260439656674862
      ],
      "rotation": [
        0.6515737032607265,
        0.6337312200735019,
        -0.27626211576212495,
        -0.3122750138477257
      ],
      "children": [
        30
      ]
    },
    {
      "name": "Solid1",
      "scale": [
        0.01,
        0.01,
        0.01
      ],
      "mesh": 6
    },
    {
      "name": "Link2",
      "translation": [
        0.024623841047286987,
        0.006467469036579132,
        0.013735608197748661
      ],
      "rotation": [
        0.6418172250270585,
        0.6250736252356766,
        -0.2953286303841113,
        -0.33186535381979276
      ],
      "children": [
        32
      ]
    },
    {
      "name": "Solid1",
      "scale": [
        0.01,
        0.01,
        0.01
      ],
      "mesh": 7
    },
    {
      "name": "Base_Gear1",
      "translation": [
        -0.02747204527258873,
        -0.0002409704029560089,
        -0.011511571705341339
      ],
      "rotation": [
        0.6320500961901145,
        0.616359817333166,
        -0.3131081139396521,
        -0.3501093437785332
      ],
      "children": [
        34
      ]
    },
    {
      "name": "Solid1",
      "scale": [
        0.01,
        0.01,
        0.01
      ],
      "mesh": 4
    },
    {
      "name": "Pin9",
      "translation": [
        -0.03675548732280731,
        0.007720086723566055,
        -0.02097144164144993
      ],
      "rotation": [
        0.5653901546489788,
        0.5252007535446096,
        0.4495553565315528,
        0.44988671044370887
      ],
      "children": [
        36
      ]
    },
    {
      "name": "Solid1",
      "scale": [
        0.01,
        0.01,
        0.01
      ],
      "mesh": 4
    },
    {
      "name": "Pin10",
      "translation": [
        -0.029196958988904953,
        0.007720086723566055,
        -0.03029177524149418
      ],
      "rotation": [
        0.5653901546489788,
        0.5252007535446096,
        0.4495553565315528,
        0.44988671044370887
      ],
      "children": [
        38
      ]
    }
  ],
  "scenes": [
    {
      "name": "Scene",
      "nodes": [
        1,
        3,
        5,
        7,
        9,
        11,
        13,
        15,
        17,
        19,
        21,
        23,
        25,
        27,
        29,
        31,
        33,
        35,
        37,
        39
      ]
    }
  ],
  "extensionsUsed": [
    "KHR_materials_clearcoat",
    "KHR_texture_transform"
  ]
}