{
  "accessors": [
    {
      "bufferView": 0,
      "componentType": 5126,
      "count": 523,
      "max": [
        1.2000000476837158,
        0.5,
        0.0
      ],
      "min": [
        0.0,
        -0.30000001192092896,
        -2.0
      ],
      "type": "VEC3"
    },
    {
      "bufferView": 0,
      "byteOffset": 12,
      "componentType": 5126,
      "count": 523,
      "type": "VEC3"
    },
    {
      "bufferView": 1,
      "componentType": 5125,
      "count": 1512,
      "type": "SCALAR"
    }
  ],
  "asset": {
    "version": "2.0"
  },
  "bufferViews": [
    {
      "buffer": 0,
      "byteLength": 16736,
      "byteStride": 32,
      "target": 34962
    },
    {
      "buffer": 0,
      "byteLength": 6048,
      "byteOffset": 16736,
      "target": 34963
    }
  ],
  "buffers": [
    {
      "byteLength": 22784,
      "uri": "data:application/octet-stream;base64,"
    }
  ],
  "materials": [
    {
      "doubleSided": true,
      "name": "ChromePolishedBlue",
      "pbrMetallicRoughness": {
        "baseColorFactor": [
          0.44520100951194763,
          0.4735319912433624,
          0.838798999786377,
          1.0
        ],
        "roughnessFactor": 0.10000000149011612
      }
    }
  ],
  "meshes": [
    {
      "name": "Solid1",
      "primitives": [
        {
          "attributes": {
            "NORMAL": 1,
            "POSITION": 0
          },
          "indices": 2,
          "material": 0,
          "mode": 4
        }
      ]
    }
  ],
  "nodes": [
    {
      "matrix": [
        0.01,
        0.0,
        0.0,
        0.0,
        0.0,
        0.01,
        0.0,
        0.0,
        0.0,
        0.0,
        0.01,
        0.0,
        0.0,
        0.0,
        0.0,
        1.0
      ],
      "mesh": 0,
      "name": "Solid1"
    }
  ],
  "scenes": [
    {
      "nodes": [
        0
      ]
    }
  ]
}