{
  "accessors": [
    {
      "bufferView": 0,
      "componentType": 5126,
      "count": 3808,
      "max": [
        0.15000000596046448,
        1.459807276725769,
        1.459807276725769
      ],
      "min": [
        -0.15000000596046448,
        -1.459807276725769,
        -3.5
      ],
      "type": "VEC3"
    },
    {
      "bufferView": 0,
      "byteOffset": 12,
      "componentType": 5126,
      "count": 3808,
      "type": "VEC3"
    },
    {
      "bufferView": 0,
      "byteOffset": 24,
      "componentType": 5126,
      "count": 3808,
      "type": "VEC2"
    },
    {
      "bufferView": 1,
      "componentType": 5125,
      "count": 11118,
      "type": "SCALAR"
    }
  ],
  "asset": {
    "version": "2.0"
  },
  "bufferViews": [
    {
      "buffer": 0,
      "byteLength": 121856,
      "byteStride": 32,
      "target": 34962
    },
    {
      "buffer": 0,
      "byteLength": 44472,
      "byteOffset": 121856,
      "target": 34963
    },
    {
      "buffer": 0,
      "byteLength": 116955,
      "byteOffset": 166328
    }
  ],
  "buffers": [
    {
      "byteLength": 283284,
      "uri": "data:application/octet-stream;base64,"
    }
  ],
  "extensionsUsed": [
    "KHR_texture_transform"
  ],
  "images": [
    {
      "bufferView": 2,
      "mimeType": "image/png",
      "name": "MetalsOrnamentalMetalsAluminumBrushed_normalmap.png"
    }
  ],
  "materials": [
    {
      "doubleSided": true,
      "name": "OrangeRed",
      "normalTexture": {
        "extensions": {
          "KHR_texture_transform": {
            "rotation": 1.5707963705062866,
            "scale": [
              0.007874015718698502,
              0.001312335953116417
            ]
          }
        },
        "index": 0
      },
      "pbrMetallicRoughness": {
        "baseColorFactor": [
          0.46778398752212524,
          0.006048830226063728,
          0.003676509950309992,
          1.0
        ],
        "metallicFactor": 0.0,
        "roughnessFactor": 0.42500001192092896
      }
    }
  ],
  "meshes": [
    {
      "name": "Solid1",
      "primitives": [
        {
          "attributes": {
            "NORMAL": 1,
            "POSITION": 0,
            "TEXCOORD_0": 2
          },
          "indices": 3,
          "material": 0,
          "mode": 4
        }
      ]
    }
  ],
  "nodes": [
    {
      "matrix": [
        0.01,
        0.0,
        0.0,
        0.0,
        0.0,
        0.01,
        0.0,
        0.0,
        0.0,
        0.0,
        0.01,
        0.0,
        0.0,
        0.0,
        0.0,
        1.0
      ],
      "mesh": 0,
      "name": "Solid1"
    }
  ],
  "samplers": [
    {
      "magFilter": 9729,
      "minFilter": 9729,
      "wrapS": 10497,
      "wrapT": 10497
    }
  ],
  "scenes": [
    {
      "nodes": [
        0
      ]
    }
  ],
  "textures": [
    {
      "name": "texture_source0_sampler0",
      "sampler": 0,
      "source": 0
    }
  ]
}