{
  "accessors": [
    {
      "bufferView": 0,
      "componentType": 5126,
      "count": 858,
      "max": [
        0.5199999809265137,
        0.25,
        0.24984771013259888
      ],
      "min": [
        -0.5199999809265137,
        -0.24939101934432983,
        -0.24984771013259888
      ],
      "type": "VEC3"
    },
    {
      "bufferView": 0,
      "byteOffset": 12,
      "componentType": 5126,
      "count": 858,
      "type": "VEC3"
    },
    {
      "bufferView": 1,
      "componentType": 5125,
      "count": 2520,
      "type": "SCALAR"
    }
  ],
  "asset": {
    "version": "2.0"
  },
  "bufferViews": [
    {
      "buffer": 0,
      "byteLength": 27456,
      "byteStride": 32,
      "target": 34962
    },
    {
      "buffer": 0,
      "byteLength": 10080,
      "byteOffset": 27456,
      "target": 34963
    }
  ],
  "buffers": [
    {
      "byteLength": 37536,
      "uri": "data:application/octet-stream;base64,"
    }
  ],
  "materials": [
    {
      "doubleSided": true,
      "name": "ChromePolished",
      "pbrMetallicRoughness": {
        "baseColorFactor": [
          0.9049559831619263,
          0.9049559831619263,
          0.9049559831619263,
          1.0
        ],
        "roughnessFactor": 0.07999999821186066
      }
    }
  ],
  "meshes": [
    {
      "name": "Solid1",
      "primitives": [
        {
          "attributes": {
            "NORMAL": 1,
            "POSITION": 0
          },
          "indices": 2,
          "material": 0,
          "mode": 4
        }
      ]
    }
  ],
  "nodes": [
    {
      "matrix": [
        0.01,
        0.0,
        0.0,
        0.0,
        0.0,
        0.01,
        0.0,
        0.0,
        0.0,
        0.0,
        0.01,
        0.0,
        0.0,
        0.0,
        0.0,
        1.0
      ],
      "mesh": 0,
      "name": "Solid1"
    }
  ],
  "scenes": [
    {
      "nodes": [
        0
      ]
    }
  ]
}