{
  "asset": {
    "version": "2.0",
    "generator": "Open Asset Import Library (assimp v5.4.0)"
  },
  "extensionsUsed": [
    "KHR_materials_clearcoat",
    "KHR_materials_volume",
    "FB_ngon_encoding"
  ],
  "accessors": [
    {
      "bufferView": 0,
      "byteOffset": 0,
      "componentType": 5126,
      "count": 1952,
      "type": "VEC3",
      "max": [
        2.050764799118042,
        6.199999809265137,
        0.27000001072883606
      ],
      "min": [
        -2.050764799118042,
        0,
        0
      ]
    },
    {
      "bufferView": 1,
      "byteOffset": 0,
      "componentType": 5126,
      "count": 1952,
      "type": "VEC3",
      "max": [
        1,
        1,
        1
      ],
      "min": [
        -1,
        -1,
        -1
      ]
    },
    {
      "bufferView": 2,
      "byteOffset": 0,
      "componentType": 5125,
      "count": 5808,
      "type": "SCALAR",
      "max": [
        1951
      ],
      "min": [
        0
      ]
    },
    {
      "bufferView": 3,
      "byteOffset": 0,
      "componentType": 5126,
      "count": 850,
      "type": "VEC3",
      "max": [
        0.5199999809265137,
        0.25,
        0.24984771013259888
      ],
      "min": [
        -0.5199999809265137,
        -0.24939101934432983,
        -0.24984771013259888
      ]
    },
    {
      "bufferView": 4,
      "byteOffset": 0,
      "componentType": 5126,
      "count": 850,
      "type": "VEC3",
      "max": [
        1,
        1,
        0.9993908405303955
      ],
      "min": [
        -1,
        -0.9975682497024536,
        -0.9993908405303955
      ]
    },
    {
      "bufferView": 5,
      "byteOffset": 0,
      "componentType": 5125,
      "count": 2520,
      "type": "SCALAR",
      "max": [
        849
      ],
      "min": [
        0
      ]
    },
    {
      "bufferView": 6,
      "byteOffset": 0,
      "componentType": 5126,
      "count": 31,
      "type": "VEC3",
      "max": [
        3.1226890087127686,
        1.6783956289291382,
        0.27000001072883606
      ],
      "min": [
        1.7029576301574707,
        1.0464277267456055,
        -0.27000001072883606
      ]
    },
    {
      "bufferView": 7,
      "byteOffset": 0,
      "componentType": 5126,
      "count": 31,
      "type": "VEC3",
      "max": [
        0.5046977400779724,
        1,
        1
      ],
      "min": [
        0,
        -1,
        -1
      ]
    },
    {
      "bufferView": 8,
      "byteOffset": 0,
      "componentType": 5126,
      "count": 31,
      "type": "VEC2",
      "max": [
        0.5139266848564148,
        0.5030651092529297
      ],
      "min": [
        0.5066244602203369,
        0.49564313888549805
      ]
    },
    {
      "bufferView": 9,
      "byteOffset": 0,
      "componentType": 5125,
      "count": 40,
      "type": "SCALAR",
      "max": [
        30
      ],
      "min": [
        0
      ]
    },
    {
      "bufferView": 10,
      "byteOffset": 0,
      "componentType": 5126,
      "count": 1319,
      "type": "VEC3",
      "max": [
        3.2214889526367188,
        2.040644884109497,
        0.27000001072883606
      ],
      "min": [
        -2.644260883331299,
        0,
        -0.27000001072883606
      ]
    },
    {
      "bufferView": 11,
      "byteOffset": 0,
      "componentType": 5126,
      "count": 1319,
      "type": "VEC3",
      "max": [
        1,
        1,
        1
      ],
      "min": [
        -1,
        -1,
        -1
      ]
    },
    {
      "bufferView": 12,
      "byteOffset": 0,
      "componentType": 5126,
      "count": 1319,
      "type": "VEC2",
      "max": [
        0.5300817489624023,
        0.503182053565979
      ],
      "min": [
        0.499432235956192,
        0.49552613496780396
      ]
    },
    {
      "bufferView": 13,
      "byteOffset": 0,
      "componentType": 5125,
      "count": 4128,
      "type": "SCALAR",
      "max": [
        1318
      ],
      "min": [
        0
      ]
    },
    {
      "bufferView": 14,
      "byteOffset": 0,
      "componentType": 5126,
      "count": 1172,
      "type": "VEC3",
      "max": [
        0.15000000596046448,
        0.3499254584312439,
        1.8981326818466187
      ],
      "min": [
        -0.15000000596046448,
        -0.3499254584312439,
        -1.8981326818466187
      ]
    },
    {
      "bufferView": 15,
      "byteOffset": 0,
      "componentType": 5126,
      "count": 1172,
      "type": "VEC3",
      "max": [
        1,
        1,
        1
      ],
      "min": [
        -1,
        -1,
        -1
      ]
    },
    {
      "bufferView": 16,
      "byteOffset": 0,
      "componentType": 5126,
      "count": 1172,
      "type": "VEC2",
      "max": [
        0.5201494097709656,
        0.5021913051605225
      ],
      "min": [
        0.4986996352672577,
        0.4968934655189514
      ]
    },
    {
      "bufferView": 17,
      "byteOffset": 0,
      "componentType": 5125,
      "count": 3504,
      "type": "SCALAR",
      "max": [
        1171
      ],
      "min": [
        0
      ]
    },
    {
      "bufferView": 18,
      "byteOffset": 0,
      "componentType": 5126,
      "count": 496,
      "type": "VEC3",
      "max": [
        1.2000000476837158,
        0.5,
        0
      ],
      "min": [
        0,
        -0.30000001192092896,
        -2
      ]
    },
    {
      "bufferView": 19,
      "byteOffset": 0,
      "componentType": 5126,
      "count": 496,
      "type": "VEC3",
      "max": [
        1,
        1,
        1
      ],
      "min": [
        -1,
        -1,
        -1
      ]
    },
    {
      "bufferView": 20,
      "byteOffset": 0,
      "componentType": 5125,
      "count": 1512,
      "type": "SCALAR",
      "max": [
        495
      ],
      "min": [
        0
      ]
    },
    {
      "bufferView": 21,
      "byteOffset": 0,
      "componentType": 5126,
      "count": 3808,
      "type": "VEC3",
      "max": [
        0.15000000596046448,
        1.459807276725769,
        1.459807276725769
      ],
      "min": [
        -0.15000000596046448,
        -1.459807276725769,
        -3.5
      ]
    },
    {
      "bufferView": 22,
      "byteOffset": 0,
      "componentType": 5126,
      "count": 3808,
      "type": "VEC3",
      "max": [
        1,
        1,
        1
      ],
      "min": [
        -1,
        -1,
        -1
      ]
    },
    {
      "bufferView": 23,
      "byteOffset": 0,
      "componentType": 5126,
      "count": 3808,
      "type": "VEC2",
      "max": [
        0.5425492525100708,
        0.502608597278595
      ],
      "min": [
        0.48437514901161194,
        0.49609965085983276
      ]
    },
    {
      "bufferView": 24,
      "byteOffset": 0,
      "componentType": 5125,
      "count": 11118,
      "type": "SCALAR",
      "max": [
        3807
      ],
      "min": [
        0
      ]
    },
    {
      "bufferView": 25,
      "byteOffset": 0,
      "componentType": 5126,
      "count": 3358,
      "type": "VEC3",
      "max": [
        3.4712579250335693,
        1.459807276725769,
        0.30000001192092896
      ],
      "min": [
        -1.459807276725769,
        -1.208551287651062,
        0
      ]
    },
    {
      "bufferView": 26,
      "byteOffset": 0,
      "componentType": 5126,
      "count": 3358,
      "type": "VEC3",
      "max": [
        1,
        1,
        1
      ],
      "min": [
        -1,
        -1,
        -1
      ]
    },
    {
      "bufferView": 27,
      "byteOffset": 0,
      "componentType": 5125,
      "count": 10668,
      "type": "SCALAR",
      "max": [
        3357
      ],
      "min": [
        0
      ]
    },
    {
      "bufferView": 28,
      "byteOffset": 0,
      "componentType": 5126,
      "count": 1495,
      "type": "VEC3",
      "max": [
        1.1399999856948853,
        0.875,
        0.874667763710022
      ],
      "min": [
        0,
        -0.8736713528633118,
        -0.874667763710022
      ]
    },
    {
      "bufferView": 29,
      "byteOffset": 0,
      "componentType": 5126,
      "count": 1495,
      "type": "VEC3",
      "max": [
        1,
        1,
        1
      ],
      "min": [
        -1,
        -0.9999898672103882,
        -0.9999898672103882
      ]
    },
    {
      "bufferView": 30,
      "byteOffset": 0,
      "componentType": 5125,
      "count": 4176,
      "type": "SCALAR",
      "max": [
        1494
      ],
      "min": [
        0
      ]
    }
  ],
  "buffers": [
    {
      "name": "Robot Gripper_embedded",
      "byteLength": 662032,
      "uri": "data:application/octet-stream;base64,"
    }
  ],
  "bufferViews": [
    {
      "buffer": 0,
      "byteOffset": 0,
      "byteLength": 23424,
      "target": 34962,
      "byteStride": 12
    },
    {
      "buffer": 0,
      "byteOffset": 23424,
      "byteLength": 23424,
      "target": 34962,
      "byteStride": 12
    },
    {
      "buffer": 0,
      "byteOffset": 46848,
      "byteLength": 23232,
      "target": 34963
    },
    {
      "buffer": 0,
      "byteOffset": 70080,
      "byteLength": 10200,
      "target": 34962,
      "byteStride": 12
    },
    {
      "buffer": 0,
      "byteOffset": 80280,
      "byteLength": 10200,
      "target": 34962,
      "byteStride": 12
    },
    {
      "buffer": 0,
      "byteOffset": 90480,
      "byteLength": 10080,
      "target": 34963
    },
    {
      "buffer": 0,
      "byteOffset": 100560,
      "byteLength": 372,
      "target": 34962,
      "byteStride": 12
    },
    {
      "buffer": 0,
      "byteOffset": 100936,
      "byteLength": 372,
      "target": 34962,
      "byteStride": 12
    },
    {
      "buffer": 0,
      "byteOffset": 101312,
      "byteLength": 248,
      "target": 34962,
      "byteStride": 8
    },
    {
      "buffer": 0,
      "byteOffset": 101560,
      "byteLength": 160,
      "target": 34963
    },
    {
      "buffer": 0,
      "byteOffset": 101720,
      "byteLength": 15828,
      "target": 34962,
      "byteStride": 12
    },
    {
      "buffer": 0,
      "byteOffset": 117552,
      "byteLength": 15828,
      "target": 34962,
      "byteStride": 12
    },
    {
      "buffer": 0,
      "byteOffset": 133384,
      "byteLength": 10552,
      "target": 34962,
      "byteStride": 8
    },
    {
      "buffer": 0,
      "byteOffset": 143936,
      "byteLength": 16512,
      "target": 34963
    },
    {
      "buffer": 0,
      "byteOffset": 160448,
      "byteLength": 14064,
      "target": 34962,
      "byteStride": 12
    },
    {
      "buffer": 0,
      "byteOffset": 174512,
      "byteLength": 14064,
      "target": 34962,
      "byteStride": 12
    },
    {
      "buffer": 0,
      "byteOffset": 188576,
      "byteLength": 9376,
      "target": 34962,
      "byteStride": 8
    },
    {
      "buffer": 0,
      "byteOffset": 197952,
      "byteLength": 14016,
      "target": 34963
    },
    {
      "buffer": 0,
      "byteOffset": 211968,
      "byteLength": 5952,
      "target": 34962,
      "byteStride": 12
    },
    {
      "buffer": 0,
      "byteOffset": 217920,
      "byteLength": 5952,
      "target": 34962,
      "byteStride": 12
    },
    {
      "buffer": 0,
      "byteOffset": 223872,
      "byteLength": 6048,
      "target": 34963
    },
    {
      "buffer": 0,
      "byteOffset": 229920,
      "byteLength": 45696,
      "target": 34962,
      "byteStride": 12
    },
    {
      "buffer": 0,
      "byteOffset": 275616,
      "byteLength": 45696,
      "target": 34962,
      "byteStride": 12
    },
    {
      "buffer": 0,
      "byteOffset": 321312,
      "byteLength": 30464,
      "target": 34962,
      "byteStride": 8
    },
    {
      "buffer": 0,
      "byteOffset": 351776,
      "byteLength": 44472,
      "target": 34963
    },
    {
      "buffer": 0,
      "byteOffset": 396248,
      "byteLength": 40296,
      "target": 34962,
      "byteStride": 12
    },
    {
      "buffer": 0,
      "byteOffset": 436544,
      "byteLength": 40296,
      "target": 34962,
      "byteStride": 12
    },
    {
      "buffer": 0,
      "byteOffset": 476840,
      "byteLength": 42672,
      "target": 34963
    },
    {
      "buffer": 0,
      "byteOffset": 519512,
      "byteLength": 17940,
      "target": 34962,
      "byteStride": 12
    },
    {
      "buffer": 0,
      "byteOffset": 537456,
      "byteLength": 17940,
      "target": 34962,
      "byteStride": 12
    },
    {
      "buffer": 0,
      "byteOffset": 555400,
      "byteLength": 16704,
      "target": 34963
    },
    {
      "buffer": 0,
      "byteOffset": 572104,
      "byteLength": 89923
    }
  ],
  "images": [
    {
      "name": "image_0",
      "bufferView": 31,
      "mimeType": "image/png"
    }
  ],
  "materials": [
    {
      "name": "ChromePolishedBlack",
      "pbrMetallicRoughness": {
        "baseColorFactor": [
          0.4178850054740906,
          0.4178850054740906,
          0.4178850054740906,
          1
        ],
        "roughnessFactor": 0.10000000149011612,
        "metallicFactor": 1
      },
      "doubleSided": true,
      "emissiveFactor": [
        0,
        0,
        0
      ],
      "alphaMode": "OPAQUE"
    },
    {
      "name": "ChromePolishedBlue",
      "pbrMetallicRoughness": {
        "baseColorFactor": [
          0.44520100951194763,
          0.4735319912433624,
          0.838798999786377,
          1
        ],
        "roughnessFactor": 0.10000000149011612,
        "metallicFactor": 1
      },
      "doubleSided": true,
      "emissiveFactor": [
        0,
        0,
        0
      ],
      "alphaMode": "OPAQUE"
    },
    {
      "name": "OrangeRed.001",
      "pbrMetallicRoughness": {
        "baseColorFactor": [
          0.46778398752212524,
          0.006048830226063728,
          0.003676509950309992,
          1
        ],
        "metallicFactor": 0,
        "roughnessFactor": 0.42500001192092896
      },
      "normalTexture": {
        "index": 0,
        "texCoord": 0
      },
      "doubleSided": true,
      "emissiveFactor": [
        0,
        0,
        0
      ],
      "alphaMode": "OPAQUE"
    },
    {
      "name": "Orange",
      "pbrMetallicRoughness": {
        "baseColorFactor": [
          0.7236829996109009,
          0.2031019926071167,
          0.004694419912993908,
          1
        ],
        "metallicFactor": 0,
        "roughnessFactor": 0.699999988079071
      },
      "doubleSided": true,
      "emissiveFactor": [
        0,
        0,
        0
      ],
      "alphaMode": "OPAQUE"
    },
    {
      "name": "ChromePolished",
      "pbrMetallicRoughness": {
        "baseColorFactor": [
          0.9049559831619263,
          0.9049559831619263,
          0.9049559831619263,
          1
        ],
        "roughnessFactor": 0.07999999821186066,
        "metallicFactor": 1
      },
      "doubleSided": true,
      "emissiveFactor": [
        0,
        0,
        0
      ],
      "alphaMode": "OPAQUE"
    },
    {
      "name": "LightRed",
      "pbrMetallicRoughness": {
        "baseColorFactor": [
          0.7874119877815247,
          0.013411699794232845,
          0.013411699794232845,
          1
        ],
        "metallicFactor": 0,
        "roughnessFactor": 0.42500001192092896
      },
      "normalTexture": {
        "index": 0,
        "texCoord": 0
      },
      "doubleSided": true,
      "emissiveFactor": [
        0,
        0,
        0
      ],
      "alphaMode": "OPAQUE"
    },
    {
      "name": "Cyan",
      "pbrMetallicRoughness": {
        "baseColorFactor": [
          0.029556799679994583,
          0.2422810047864914,
          0.7681509852409363,
          1
        ],
        "metallicFactor": 0,
        "roughnessFactor": 0.42500001192092896
      },
      "normalTexture": {
        "index": 0,
        "texCoord": 0
      },
      "doubleSided": true,
      "emissiveFactor": [
        0,
        0,
        0
      ],
      "alphaMode": "OPAQUE"
    },
    {
      "name": "GlossyBlack.001",
      "pbrMetallicRoughness": {
        "baseColorFactor": [
          0,
          0,
          0,
          1
        ],
        "metallicFactor": 0.75,
        "roughnessFactor": 0.6600000262260437
      },
      "doubleSided": true,
      "extensions": {
        "KHR_materials_clearcoat": {
          "clearcoatFactor": 1,
          "clearcoatRoughnessFactor": 0.10000000149011612
        }
      },
      "emissiveFactor": [
        0,
        0,
        0
      ],
      "alphaMode": "OPAQUE"
    }
  ],
  "meshes": [
    {
      "name": "meshes[0]",
      "primitives": [
        {
          "mode": 4,
          "material": 0,
          "indices": 2,
          "attributes": {
            "POSITION": 0,
            "NORMAL": 1
          }
        }
      ]
    },
    {
      "name": "meshes[5]",
      "primitives": [
        {
          "mode": 4,
          "material": 4,
          "indices": 5,
          "attributes": {
            "POSITION": 3,
            "NORMAL": 4
          }
        }
      ]
    },
    {
      "name": "meshes[13]",
      "primitives": [
        {
          "mode": 1,
          "material": 5,
          "indices": 9,
          "attributes": {
            "POSITION": 6,
            "NORMAL": 7,
            "TEXCOORD_0": 8
          }
        },
        {
          "mode": 4,
          "material": 5,
          "indices": 13,
          "attributes": {
            "POSITION": 10,
            "NORMAL": 11,
            "TEXCOORD_0": 12
          }
        }
      ]
    },
    {
      "name": "meshes[15]",
      "primitives": [
        {
          "mode": 4,
          "material": 6,
          "indices": 17,
          "attributes": {
            "POSITION": 14,
            "NORMAL": 15,
            "TEXCOORD_0": 16
          }
        }
      ]
    },
    {
      "name": "meshes[2]",
      "primitives": [
        {
          "mode": 4,
          "material": 1,
          "indices": 20,
          "attributes": {
            "POSITION": 18,
            "NORMAL": 19
          }
        }
      ]
    },
    {
      "name": "meshes[3]",
      "primitives": [
        {
          "mode": 4,
          "material": 2,
          "indices": 24,
          "attributes": {
            "POSITION": 21,
            "NORMAL": 22,
            "TEXCOORD_0": 23
          }
        }
      ]
    },
    {
      "name": "meshes[4]",
      "primitives": [
        {
          "mode": 4,
          "material": 3,
          "indices": 27,
          "attributes": {
            "POSITION": 25,
            "NORMAL": 26
          }
        }
      ]
    },
    {
      "name": "meshes[17]",
      "primitives": [
        {
          "mode": 4,
          "material": 7,
          "indices": 30,
          "attributes": {
            "POSITION": 28,
            "NORMAL": 29
          }
        }
      ]
    }
  ],
  "nodes": [
    {
      "name": "Robot Gripper",
      "children": [
        1,
        3,
        5,
        7,
        9,
        11,
        13,
        15,
        17,
        19,
        21,
        23,
        25,
        27,
        29,
        31,
        33,
        35,
        37,
        39
      ]
    },
    {
      "name": "Base_Plate1",
      "matrix": [
        -0.6298774480819702,
        -1.1101732866336533e-8,
        0.7766945958137512,
        0,
        0.7754400372505188,
        -0.05681496858596802,
        0.6288599967956543,
        0,
        0.044127851724624634,
        0.9983847737312317,
        0.03578643128275871,
        0,
        -0.03614417091012001,
        0.0064497701823711395,
        -0.028200728818774223,
        1
      ],
      "children": [
        2
      ],
      "extras": {
        "name": "Base Plate:1"
      }
    },
    {
      "name": "Solid1047",
      "matrix": [
        0.010000000707805157,
        0,
        0,
        0,
        0,
        0.009999999776482582,
        0,
        0,
        0,
        0,
        0.009999999776482582,
        0,
        0,
        0,
        0,
        1
      ],
      "mesh": 0,
      "extras": {
        "name": "Solid1.047"
      }
    },
    {
      "name": "Base_Plate2",
      "matrix": [
        -0.6298774480819702,
        -1.1101732866336533e-8,
        0.7766945958137512,
        0,
        0.7754400372505188,
        -0.05681496858596802,
        0.6288599967956543,
        0,
        0.044127851724624634,
        0.9983847737312317,
        0.03578643128275871,
        0,
        -0.036263320595026016,
        0.003754131495952606,
        -0.02829735539853573,
        1
      ],
      "children": [
        4
      ],
      "extras": {
        "name": "Base Plate:2"
      }
    },
    {
      "name": "Solid1048",
      "matrix": [
        0.010000000707805157,
        0,
        0,
        0,
        0,
        0.009999999776482582,
        0,
        0,
        0,
        0,
        0.009999999776482582,
        0,
        0,
        0,
        0,
        1
      ],
      "mesh": 0,
      "extras": {
        "name": "Solid1.048"
      }
    },
    {
      "name": "Base_Mounting_bracket1",
      "matrix": [
        0.7754399180412292,
        -0.05681511387228966,
        0.6288600564002991,
        0,
        0.04412798956036568,
        0.9983847141265869,
        0.03578655794262886,
        0,
        -0.629877507686615,
        4.615247295447489e-9,
        0.7766944766044617,
        0,
        -0.04628574103116989,
        0.012440547347068787,
        -0.023550184443593025,
        1
      ],
      "children": [
        6
      ],
      "extras": {
        "name": "Base Mounting bracket:1"
      }
    },
    {
      "name": "Solid1049",
      "matrix": [
        0.009999998845160007,
        0,
        0,
        0,
        0,
        0.009999999776482582,
        0,
        0,
        0,
        0,
        0.009999999776482582,
        0,
        0,
        0,
        0,
        1
      ],
      "mesh": 4,
      "extras": {
        "name": "Solid1.049"
      }
    },
    {
      "name": "Gear_link_11",
      "matrix": [
        -0.04412797838449478,
        -0.9983847737312317,
        -0.03578657656908035,
        0,
        -0.6527722477912903,
        0.0016980130458250642,
        0.7575523257255554,
        0,
        -0.7562679052352905,
        0.056789714843034744,
        -0.6517928242683411,
        0,
        -0.015305641107261181,
        0.008506737649440765,
        0.006080083083361387,
        1
      ],
      "children": [
        8
      ],
      "extras": {
        "name": "Gear link 1:1"
      }
    },
    {
      "name": "Solid1050",
      "matrix": [
        0.009999999776482582,
        0,
        0,
        0,
        0,
        0.009999999776482582,
        0,
        0,
        0,
        0,
        0.009999999776482582,
        0,
        0,
        0,
        0,
        1
      ],
      "mesh": 5,
      "extras": {
        "name": "Solid1.050"
      }
    },
    {
      "name": "Gear_link_21",
      "matrix": [
        0.8658866882324219,
        -0.056089337915182114,
        0.4970857501029968,
        0,
        -0.4982900619506836,
        -0.009051921777427197,
        0.866963267326355,
        0,
        -0.044127851724624634,
        -0.9983848333358765,
        -0.0357867069542408,
        0,
        0.0017672395333647728,
        0.01000431552529335,
        -0.0148369912058115,
        1
      ],
      "children": [
        10
      ],
      "extras": {
        "name": "Gear link 2:1"
      }
    },
    {
      "name": "Solid1051",
      "matrix": [
        0.009999999776482582,
        0,
        0,
        0,
        0,
        0.009999999776482582,
        0,
        0,
        0,
        0,
        0.009999999776482582,
        0,
        0,
        0,
        0,
        1
      ],
      "mesh": 6,
      "extras": {
        "name": "Solid1.051"
      }
    },
    {
      "name": "Pin1",
      "matrix": [
        0.04412797465920448,
        0.9983847141265869,
        0.03578651696443558,
        0,
        -0.7828917503356934,
        0.05681104585528374,
        -0.6195586919784546,
        0,
        -0.6205910444259644,
        -0.0006771039916202426,
        0.7841340899467468,
        0,
        0.0015819026157259941,
        0.005811098963022232,
        -0.01498729269951582,
        1
      ],
      "children": [
        12
      ],
      "extras": {
        "name": "Pin:1"
      }
    },
    {
      "name": "Solid1052",
      "matrix": [
        0.009999999776482582,
        0,
        0,
        0,
        0,
        0.010000000707805157,
        0,
        0,
        0,
        0,
        0.009999999776482582,
        0,
        0,
        0,
        0,
        1
      ],
      "mesh": 1,
      "extras": {
        "name": "Solid1.052"
      }
    },
    {
      "name": "Pin2",
      "matrix": [
        0.04412779211997986,
        0.9983847141265869,
        0.035786475986242294,
        0,
        -0.775439977645874,
        0.05681490898132324,
        -0.6288599967956543,
        0,
        -0.6298774480819702,
        -5.153351523290439e-8,
        0.7766945362091064,
        0,
        -0.015424787066876888,
        0.005811098963022232,
        0.005983459763228893,
        1
      ],
      "children": [
        14
      ],
      "extras": {
        "name": "Pin:2"
      }
    },
    {
      "name": "Solid1053",
      "matrix": [
        0.010000000707805157,
        0,
        0,
        0,
        0,
        0.009999999776482582,
        0,
        0,
        0,
        0,
        0.009999999776482582,
        0,
        0,
        0,
        0,
        1
      ],
      "mesh": 1,
      "extras": {
        "name": "Solid1.053"
      }
    },
    {
      "name": "Pin3",
      "matrix": [
        0.04412797465920448,
        0.9983847141265869,
        0.03578651696443558,
        0,
        -0.7828917503356934,
        0.05681104585528374,
        -0.6195586919784546,
        0,
        -0.6205910444259644,
        -0.0006771039916202426,
        0.7841340899467468,
        0,
        0.0055969757959246635,
        0.004652068018913269,
        0.012396705336868763,
        1
      ],
      "children": [
        16
      ],
      "extras": {
        "name": "Pin:3"
      }
    },
    {
      "name": "Solid1054",
      "matrix": [
        0.009999999776482582,
        0,
        0,
        0,
        0,
        0.010000000707805157,
        0,
        0,
        0,
        0,
        0.009999999776482582,
        0,
        0,
        0,
        0,
        1
      ],
      "mesh": 1,
      "extras": {
        "name": "Solid1.054"
      }
    },
    {
      "name": "Pin4",
      "matrix": [
        0.04412759095430374,
        0.9983848333358765,
        0.03578650951385498,
        0,
        -0.5008079409599304,
        0.053102124482393265,
        -0.8639281392097473,
        0,
        -0.8644329905509949,
        0.020201008766889572,
        0.502342164516449,
        0,
        0.026172524318099022,
        0.004050809890031815,
        0.0037993527948856354,
        1
      ],
      "children": [
        18
      ],
      "extras": {
        "name": "Pin:4"
      }
    },
    {
      "name": "Solid1055",
      "matrix": [
        0.009999999776482582,
        0,
        0,
        0,
        0,
        0.010000000707805157,
        0,
        0,
        0,
        0,
        0.009999999776482582,
        0,
        0,
        0,
        0,
        1
      ],
      "mesh": 1,
      "extras": {
        "name": "Solid1.055"
      }
    },
    {
      "name": "Pin5",
      "matrix": [
        0.044127773493528366,
        0.9983847737312317,
        0.03578656166791916,
        0,
        -0.930353045463562,
        0.0541197806596756,
        -0.3626490533351898,
        0,
        -0.3640000522136688,
        -0.017291219905018806,
        0.9312384128570557,
        0,
        0.029026994481682777,
        0.0028916262090206146,
        0.03261883929371834,
        1
      ],
      "children": [
        20
      ],
      "extras": {
        "name": "Pin:5"
      }
    },
    {
      "name": "Solid1056",
      "matrix": [
        0.009999999776482582,
        0,
        0,
        0,
        0,
        0.009999999776482582,
        0,
        0,
        0,
        0,
        0.009999998845160007,
        0,
        0,
        0,
        0,
        1
      ],
      "mesh": 1,
      "extras": {
        "name": "Solid1.056"
      }
    },
    {
      "name": "Pin6",
      "matrix": [
        0.04412797465920448,
        0.9983847141265869,
        0.03578651696443558,
        0,
        -0.7828917503356934,
        0.05681104585528374,
        -0.6195586919784546,
        0,
        -0.6205910444259644,
        -0.0006771039916202426,
        0.7841340899467468,
        0,
        0.012198090553283691,
        0.004652068018913269,
        0.004256946966052055,
        1
      ],
      "children": [
        22
      ],
      "extras": {
        "name": "Pin:6"
      }
    },
    {
      "name": "Solid1057",
      "matrix": [
        0.009999999776482582,
        0,
        0,
        0,
        0,
        0.010000000707805157,
        0,
        0,
        0,
        0,
        0.009999999776482582,
        0,
        0,
        0,
        0,
        1
      ],
      "mesh": 1,
      "extras": {
        "name": "Solid1.057"
      }
    },
    {
      "name": "Pin7",
      "matrix": [
        0.044127870351076126,
        0.9983847737312317,
        0.03578659147024155,
        0,
        -0.9989321827888489,
        0.04458612576127052,
        -0.01210950780659914,
        0,
        -0.013685534708201885,
        -0.03521401062607765,
        0.9992860555648804,
        0,
        0.008019511587917805,
        0.0040506161749362946,
        0.026189034804701805,
        1
      ],
      "children": [
        24
      ],
      "extras": {
        "name": "Pin:7"
      }
    },
    {
      "name": "Solid1058",
      "matrix": [
        0.010000000707805157,
        0,
        0,
        0,
        0,
        0.010000000707805157,
        0,
        0,
        0,
        0,
        0.010000000707805157,
        0,
        0,
        0,
        0,
        1
      ],
      "mesh": 1,
      "extras": {
        "name": "Solid1.058"
      }
    },
    {
      "name": "Pin8",
      "matrix": [
        0.04412800073623657,
        0.9983846545219421,
        0.03578660264611244,
        0,
        -0.9721193313598633,
        0.05116957798600197,
        -0.22883528470993042,
        0,
        -0.23029683530330658,
        -0.024690819904208183,
        0.9728071093559265,
        0,
        0.03681130334734917,
        0.0028915926814079285,
        0.023021025583148003,
        1
      ],
      "children": [
        26
      ],
      "extras": {
        "name": "Pin:8"
      }
    },
    {
      "name": "Solid1059",
      "matrix": [
        0.009999999776482582,
        0,
        0,
        0,
        0,
        0.009999998845160007,
        0,
        0,
        0,
        0,
        0.009999999776482582,
        0,
        0,
        0,
        0,
        1
      ],
      "mesh": 1,
      "extras": {
        "name": "Solid1.059"
      }
    },
    {
      "name": "Gripper1",
      "matrix": [
        0.4835807979106903,
        -0.05269161984324455,
        0.8737123012542725,
        0,
        0.874186635017395,
        -0.02124941721558571,
        -0.4851248562335968,
        0,
        0.044127900153398514,
        0.9983847141265869,
        0.03578650578856468,
        0,
        0.03211788088083267,
        0.0015281885862350464,
        0.024929899722337723,
        1
      ],
      "children": [
        28
      ],
      "extras": {
        "name": "Gripper:1"
      }
    },
    {
      "name": "Solid1060",
      "matrix": [
        0.009999999776482582,
        0,
        0,
        0,
        0,
        0.009999998845160007,
        0,
        0,
        0,
        0,
        0.009999999776482582,
        0,
        0,
        0,
        0,
        1
      ],
      "mesh": 2,
      "extras": {
        "name": "Solid1.060"
      }
    },
    {
      "name": "Gripper2",
      "matrix": [
        0.9548855423927307,
        -0.05268141254782677,
        0.29226407408714294,
        0,
        -0.29367727041244507,
        -0.021275121718645096,
        0.9556679129600525,
        0,
        -0.044127997010946274,
        -0.9983847737312317,
        -0.03578663989901543,
        0,
        0.029923101887106895,
        0.0015283450484275818,
        0.02763192728161812,
        1
      ],
      "children": [
        30
      ],
      "extras": {
        "name": "Gripper:2"
      }
    },
    {
      "name": "Solid1061",
      "matrix": [
        0.009999999776482582,
        0,
        0,
        0,
        0,
        0.009999999776482582,
        0,
        0,
        0,
        0,
        0.009999999776482582,
        0,
        0,
        0,
        0,
        1
      ],
      "mesh": 2,
      "extras": {
        "name": "Solid1.061"
      }
    },
    {
      "name": "Link1",
      "matrix": [
        0.04412788152694702,
        0.9983847737312317,
        0.03578658774495125,
        0,
        0.65330570936203,
        -0.001738152583129704,
        -0.757092297077179,
        0,
        -0.7558071613311768,
        0.056788500398397446,
        -0.6523271799087524,
        0,
        0.01743112877011299,
        0.006467483937740326,
        0.02260439656674862,
        1
      ],
      "children": [
        32
      ],
      "extras": {
        "name": "Link:1"
      }
    },
    {
      "name": "Solid1062",
      "matrix": [
        0.010000000707805157,
        0,
        0,
        0,
        0,
        0.010000000707805157,
        0,
        0,
        0,
        0,
        0.010000000707805157,
        0,
        0,
        0,
        0,
        1
      ],
      "mesh": 3,
      "extras": {
        "name": "Solid1.062"
      }
    },
    {
      "name": "Link2",
      "matrix": [
        0.04412797465920448,
        0.9983846545219421,
        0.03578655421733856,
        0,
        0.6063473224639893,
        0.0017033483600243926,
        -0.7951980233192444,
        0,
        -0.7939745187759399,
        0.05678952485322952,
        -0.6052927374839783,
        0,
        0.024623841047286987,
        0.006467469036579132,
        0.013735608197748661,
        1
      ],
      "children": [
        34
      ],
      "extras": {
        "name": "Link:2"
      }
    },
    {
      "name": "Solid1063",
      "matrix": [
        0.009999999776482582,
        0,
        0,
        0,
        0,
        0.009999998845160007,
        0,
        0,
        0,
        0,
        0.009999999776482582,
        0,
        0,
        0,
        0,
        1
      ],
      "mesh": 3,
      "extras": {
        "name": "Solid1.063"
      }
    },
    {
      "name": "Base_Gear1",
      "matrix": [
        0.04412773624062538,
        0.9983847141265869,
        0.03578663244843483,
        0,
        0.5598964095115662,
        0.004951964598149061,
        -0.8285478353500366,
        0,
        -0.8273866772651672,
        0.05659875273704529,
        -0.5587735176086426,
        0,
        -0.02747204527258873,
        -0.0002409704029560089,
        -0.011511571705341339,
        1
      ],
      "children": [
        36
      ],
      "extras": {
        "name": "Base Gear:1"
      }
    },
    {
      "name": "Solid1064",
      "matrix": [
        0.009999999776482582,
        0,
        0,
        0,
        0,
        0.009999999776482582,
        0,
        0,
        0,
        0,
        0.009999999776482582,
        0,
        0,
        0,
        0,
        1
      ],
      "mesh": 7,
      "extras": {
        "name": "Solid1.064"
      }
    },
    {
      "name": "Pin9",
      "matrix": [
        0.0441279299557209,
        0.9983848929405212,
        0.035786617547273636,
        0,
        0.18938866257667542,
        -0.04353230446577072,
        0.9809369444847107,
        0,
        0.9809103012084961,
        -0.03650933504104614,
        -0.1910039335489273,
        0,
        -0.03675548732280731,
        0.007720086723566055,
        -0.02097144164144993,
        1
      ],
      "children": [
        38
      ],
      "extras": {
        "name": "Pin:9"
      }
    },
    {
      "name": "Solid1065",
      "matrix": [
        0.009999999776482582,
        0,
        0,
        0,
        0,
        0.009999998845160007,
        0,
        0,
        0,
        0,
        0.009999999776482582,
        0,
        0,
        0,
        0,
        1
      ],
      "mesh": 1,
      "extras": {
        "name": "Solid1.065"
      }
    },
    {
      "name": "Pin10",
      "matrix": [
        0.0441279299557209,
        0.9983848929405212,
        0.035786617547273636,
        0,
        0.18938866257667542,
        -0.04353230446577072,
        0.9809369444847107,
        0,
        0.9809103012084961,
        -0.03650933504104614,
        -0.1910039335489273,
        0,
        -0.029196958988904953,
        0.007720086723566055,
        -0.03029177524149418,
        1
      ],
      "children": [
        40
      ],
      "extras": {
        "name": "Pin:10"
      }
    },
    {
      "name": "Solid1066",
      "matrix": [
        0.009999999776482582,
        0,
        0,
        0,
        0,
        0.009999998845160007,
        0,
        0,
        0,
        0,
        0.009999999776482582,
        0,
        0,
        0,
        0,
        1
      ],
      "mesh": 1,
      "extras": {
        "name": "Solid1.066"
      }
    }
  ],
  "samplers": [
    {
      "magFilter": 9729,
      "minFilter": 9987,
      "wrapS": 10497,
      "wrapT": 10497
    }
  ],
  "scenes": [
    {
      "nodes": [
        0
      ]
    }
  ],
  "textures": [
    {
      "source": 0,
      "sampler": 0
    }
  ],
  "scene": 0
}
