{
  "asset": {
    "generator": "glTF-Transform v4.3.0",
    "version": "2.0"
  },
  "accessors": [
    {
      "type": "VEC3",
      "componentType": 5126,
      "count": 920,
      "max": [
        18.5,
        9.75,
        1
      ],
      "min": [
        0,
        -2.25,
        0
      ],
      "bufferView": 0,
      "byteOffset": 0
    },
    {
      "type": "VEC3",
      "componentType": 5126,
      "count": 920,
      "bufferView": 0,
      "byteOffset": 12
    },
    {
      "type": "SCALAR",
      "componentType": 5125,
      "count": 2604,
      "bufferView": 1,
      "byteOffset": 0
    },
    {
      "type": "VEC3",
      "componentType": 5126,
      "count": 1082,
      "max": [
        3.5,
        5.5,
        2
      ],
      "min": [
        0,
        0,
        0
      ],
      "bufferView": 2,
      "byteOffset": 0
    },
    {
      "type": "VEC3",
      "componentType": 5126,
      "count": 1082,
      "bufferView": 2,
      "byteOffset": 12
    },
    {
      "type": "SCALAR",
      "componentType": 5125,
      "count": 3204,
      "bufferView": 3,
      "byteOffset": 0
    },
    {
      "type": "VEC3",
      "componentType": 5126,
      "count": 1024,
      "max": [
        7.5,
        5.5,
        2.5
      ],
      "min": [
        0,
        0,
        0
      ],
      "bufferView": 4,
      "byteOffset": 0
    },
    {
      "type": "VEC3",
      "componentType": 5126,
      "count": 1024,
      "bufferView": 4,
      "byteOffset": 12
    },
    {
      "type": "SCALAR",
      "componentType": 5125,
      "count": 3012,
      "bufferView": 5,
      "byteOffset": 0
    },
    {
      "type": "VEC3",
      "componentType": 5126,
      "count": 188,
      "max": [
        7.699999809265137,
        2,
        0.800000011920929
      ],
      "min": [
        0,
        0,
        0
      ],
      "bufferView": 6,
      "byteOffset": 0
    },
    {
      "type": "VEC3",
      "componentType": 5126,
      "count": 188,
      "bufferView": 6,
      "byteOffset": 12
    },
    {
      "type": "SCALAR",
      "componentType": 5125,
      "count": 516,
      "bufferView": 7,
      "byteOffset": 0
    },
    {
      "type": "VEC3",
      "componentType": 5126,
      "count": 1039,
      "max": [
        14,
        5.5,
        0
      ],
      "min": [
        0,
        0,
        -3
      ],
      "bufferView": 8,
      "byteOffset": 0
    },
    {
      "type": "VEC3",
      "componentType": 5126,
      "count": 1039,
      "bufferView": 8,
      "byteOffset": 12
    },
    {
      "type": "SCALAR",
      "componentType": 5125,
      "count": 2454,
      "bufferView": 9,
      "byteOffset": 0
    },
    {
      "type": "VEC3",
      "componentType": 5126,
      "count": 934,
      "max": [
        7.5,
        1.899999976158142,
        0
      ],
      "min": [
        0,
        -1.600000023841858,
        -5
      ],
      "bufferView": 10,
      "byteOffset": 0
    },
    {
      "type": "VEC3",
      "componentType": 5126,
      "count": 934,
      "bufferView": 10,
      "byteOffset": 12
    },
    {
      "type": "SCALAR",
      "componentType": 5125,
      "count": 2502,
      "bufferView": 11,
      "byteOffset": 0
    },
    {
      "type": "VEC3",
      "componentType": 5126,
      "count": 204,
      "max": [
        5,
        1.899999976158142,
        0.6000000238418579
      ],
      "min": [
        0,
        0,
        0
      ],
      "bufferView": 12,
      "byteOffset": 0
    },
    {
      "type": "VEC3",
      "componentType": 5126,
      "count": 204,
      "bufferView": 12,
      "byteOffset": 12
    },
    {
      "type": "SCALAR",
      "componentType": 5125,
      "count": 588,
      "bufferView": 13,
      "byteOffset": 0
    },
    {
      "type": "VEC3",
      "componentType": 5126,
      "count": 626,
      "max": [
        0.800000011920929,
        0.800000011920929,
        0.8500000238418579
      ],
      "min": [
        -0.800000011920929,
        -0.800000011920929,
        0
      ],
      "bufferView": 14,
      "byteOffset": 0
    },
    {
      "type": "VEC3",
      "componentType": 5126,
      "count": 626,
      "bufferView": 14,
      "byteOffset": 12
    },
    {
      "type": "SCALAR",
      "componentType": 5125,
      "count": 1860,
      "bufferView": 15,
      "byteOffset": 0
    },
    {
      "type": "VEC3",
      "componentType": 5126,
      "count": 406,
      "max": [
        0.949999988079071,
        0.949999988079071,
        2
      ],
      "min": [
        -0.949999988079071,
        -0.949999988079071,
        -13.5
      ],
      "bufferView": 16,
      "byteOffset": 0
    },
    {
      "type": "VEC3",
      "componentType": 5126,
      "count": 406,
      "bufferView": 16,
      "byteOffset": 12
    },
    {
      "type": "SCALAR",
      "componentType": 5125,
      "count": 1356,
      "bufferView": 17,
      "byteOffset": 0
    }
  ],
  "bufferViews": [
    {
      "buffer": 0,
      "byteOffset": 0,
      "byteLength": 22080,
      "byteStride": 24,
      "target": 34962
    },
    {
      "buffer": 0,
      "byteOffset": 22080,
      "byteLength": 10416,
      "target": 34963
    },
    {
      "buffer": 1,
      "byteOffset": 0,
      "byteLength": 25968,
      "byteStride": 24,
      "target": 34962
    },
    {
      "buffer": 1,
      "byteOffset": 25968,
      "byteLength": 12816,
      "target": 34963
    },
    {
      "buffer": 2,
      "byteOffset": 0,
      "byteLength": 24576,
      "byteStride": 24,
      "target": 34962
    },
    {
      "buffer": 2,
      "byteOffset": 24576,
      "byteLength": 12048,
      "target": 34963
    },
    {
      "buffer": 3,
      "byteOffset": 0,
      "byteLength": 4512,
      "byteStride": 24,
      "target": 34962
    },
    {
      "buffer": 3,
      "byteOffset": 4512,
      "byteLength": 2064,
      "target": 34963
    },
    {
      "buffer": 4,
      "byteOffset": 0,
      "byteLength": 24936,
      "byteStride": 24,
      "target": 34962
    },
    {
      "buffer": 4,
      "byteOffset": 24936,
      "byteLength": 9816,
      "target": 34963
    },
    {
      "buffer": 5,
      "byteOffset": 0,
      "byteLength": 22416,
      "byteStride": 24,
      "target": 34962
    },
    {
      "buffer": 5,
      "byteOffset": 22416,
      "byteLength": 10008,
      "target": 34963
    },
    {
      "buffer": 6,
      "byteOffset": 0,
      "byteLength": 4896,
      "byteStride": 24,
      "target": 34962
    },
    {
      "buffer": 6,
      "byteOffset": 4896,
      "byteLength": 2352,
      "target": 34963
    },
    {
      "buffer": 7,
      "byteOffset": 0,
      "byteLength": 15024,
      "byteStride": 24,
      "target": 34962
    },
    {
      "buffer": 7,
      "byteOffset": 15024,
      "byteLength": 7440,
      "target": 34963
    },
    {
      "buffer": 8,
      "byteOffset": 0,
      "byteLength": 9744,
      "byteStride": 24,
      "target": 34962
    },
    {
      "buffer": 8,
      "byteOffset": 9744,
      "byteLength": 5424,
      "target": 34963
    }
  ],
  "buffers": [
    {
      "uri": "Machine_Vice_Restored_Full_1.bin",
      "byteLength": 32496
    },
    {
      "uri": "Machine_Vice_Restored_Full_2.bin",
      "byteLength": 38784
    },
    {
      "uri": "Machine_Vice_Restored_Full_3.bin",
      "byteLength": 36624
    },
    {
      "uri": "Machine_Vice_Restored_Full_4.bin",
      "byteLength": 6576
    },
    {
      "uri": "Machine_Vice_Restored_Full_5.bin",
      "byteLength": 34752
    },
    {
      "uri": "Machine_Vice_Restored_Full_6.bin",
      "byteLength": 32424
    },
    {
      "uri": "Machine_Vice_Restored_Full_7.bin",
      "byteLength": 7248
    },
    {
      "uri": "Machine_Vice_Restored_Full_8.bin",
      "byteLength": 22464
    },
    {
      "uri": "Machine_Vice_Restored_Full_9.bin",
      "byteLength": 15168
    }
  ],
  "materials": [
    {
      "name": "Default",
      "doubleSided": true,
      "pbrMetallicRoughness": {
        "baseColorFactor": [
          0.52252197265625,
          0.52252197265625,
          0.52252197265625,
          1
        ],
        "roughnessFactor": 0.699999988079071,
        "metallicFactor": 0
      }
    }
  ],
  "meshes": [
    {
      "name": "Solid1",
      "primitives": [
        {
          "attributes": {
            "NORMAL": 1,
            "POSITION": 0
          },
          "mode": 4,
          "material": 0,
          "indices": 2
        }
      ]
    },
    {
      "name": "Solid1",
      "primitives": [
        {
          "attributes": {
            "NORMAL": 4,
            "POSITION": 3
          },
          "mode": 4,
          "material": 0,
          "indices": 5
        }
      ]
    },
    {
      "name": "Solid1",
      "primitives": [
        {
          "attributes": {
            "NORMAL": 7,
            "POSITION": 6
          },
          "mode": 4,
          "material": 0,
          "indices": 8
        }
      ]
    },
    {
      "name": "Solid1",
      "primitives": [
        {
          "attributes": {
            "NORMAL": 10,
            "POSITION": 9
          },
          "mode": 4,
          "material": 0,
          "indices": 11
        }
      ]
    },
    {
      "name": "Solid1",
      "primitives": [
        {
          "attributes": {
            "NORMAL": 13,
            "POSITION": 12
          },
          "mode": 4,
          "material": 0,
          "indices": 14
        }
      ]
    },
    {
      "name": "Solid1",
      "primitives": [
        {
          "attributes": {
            "NORMAL": 16,
            "POSITION": 15
          },
          "mode": 4,
          "material": 0,
          "indices": 17
        }
      ]
    },
    {
      "name": "Solid1",
      "primitives": [
        {
          "attributes": {
            "NORMAL": 19,
            "POSITION": 18
          },
          "mode": 4,
          "material": 0,
          "indices": 20
        }
      ]
    },
    {
      "name": "Solid1",
      "primitives": [
        {
          "attributes": {
            "NORMAL": 22,
            "POSITION": 21
          },
          "mode": 4,
          "material": 0,
          "indices": 23
        }
      ]
    },
    {
      "name": "Solid1",
      "primitives": [
        {
          "attributes": {
            "NORMAL": 25,
            "POSITION": 24
          },
          "mode": 4,
          "material": 0,
          "indices": 26
        }
      ]
    }
  ],
  "nodes": [
    {
      "name": "Solid1",
      "scale": [
        0.01,
        0.01,
        0.01
      ],
      "mesh": 0
    },
    {
      "name": "Part8-grundplatte1",
      "translation": [
        -0.08788567036390305,
        -0.02377060241997242,
        0.157069593667984
      ],
      "rotation": [
        0.2831838681711325,
        0.6479250753759179,
        -0.6479250629878983,
        0.28318385670640056
      ],
      "children": [
        0
      ]
    },
    {
      "name": "Solid1",
      "scale": [
        0.01,
        0.01,
        0.01
      ],
      "mesh": 1
    },
    {
      "name": "Part4_spindelsockel1",
      "translation": [
        -0.08679166436195374,
        -0.02377060241997242,
        0.1288064867258072
      ],
      "rotation": [
        0,
        0.36474117793769095,
        0,
        0.9311089480381045
      ],
      "children": [
        2
      ]
    },
    {
      "name": "Solid1",
      "scale": [
        0.01,
        0.01,
        0.01
      ],
      "mesh": 2
    },
    {
      "name": "Part2_Feste_Backe1",
      "translation": [
        -0.21354275941848755,
        -0.02377060241997242,
        0.021292954683303833
      ],
      "rotation": [
        0,
        0.36474117793769095,
        0,
        0.9311089480381045
      ],
      "children": [
        4
      ]
    },
    {
      "name": "Solid1",
      "scale": [
        0.01,
        0.01,
        0.01
      ],
      "mesh": 3
    },
    {
      "name": "Part5-Spannbacke1",
      "translation": [
        -0.20205058157444,
        0.01222939696162939,
        0.035182882100343704
      ],
      "rotation": [
        0,
        0.36474117793769095,
        0,
        0.9311089480381045
      ],
      "children": [
        6
      ]
    },
    {
      "name": "Solid1",
      "scale": [
        0.01,
        0.01,
        0.01
      ],
      "mesh": 4
    },
    {
      "name": "Part1_Fuhrung1",
      "translation": [
        -0.1892227828502655,
        0.0062293922528624535,
        0.032848868519067764
      ],
      "rotation": [
        -0.6479250796649471,
        -0.28318387546004836,
        -0.2831838754600482,
        0.6479250586988693
      ],
      "children": [
        8
      ]
    },
    {
      "name": "Solid1",
      "scale": [
        0.01,
        0.01,
        0.01
      ],
      "mesh": 5
    },
    {
      "name": "Part3-lose_backe1",
      "translation": [
        -0.1188911572098732,
        0.01222939696162939,
        0.1235671415925026
      ],
      "rotation": [
        0,
        0.36474117793769095,
        0,
        0.9311089480381045
      ],
      "children": [
        10
      ]
    },
    {
      "name": "Solid1",
      "scale": [
        0.01,
        0.01,
        0.01
      ],
      "mesh": 3
    },
    {
      "name": "Part5-Spannbacke2",
      "translation": [
        -0.09231942892074585,
        0.01222939696162939,
        0.040386952459812164
      ],
      "rotation": [
        0,
        0.9311089554213988,
        0,
        -0.364741159089664
      ],
      "children": [
        12
      ]
    },
    {
      "name": "Solid1",
      "scale": [
        0.01,
        0.01,
        0.01
      ],
      "mesh": 6
    },
    {
      "name": "Part6-fuhrungschiene1",
      "translation": [
        -0.1188911572098732,
        -0.003770604729652405,
        0.1235671415925026
      ],
      "rotation": [
        0.2831838681711325,
        0.6479250753759179,
        -0.6479250629878983,
        0.28318385670640056
      ],
      "children": [
        14
      ]
    },
    {
      "name": "Solid1",
      "scale": [
        0.01,
        0.01,
        0.01
      ],
      "mesh": 6
    },
    {
      "name": "Part6-fuhrungschiene2",
      "translation": [
        -0.09780794382095337,
        -0.003770604729652405,
        0.03592868149280548
      ],
      "rotation": [
        0.6479250796649471,
        -0.28318387546004836,
        0.2831838754600482,
        0.6479250586988693
      ],
      "children": [
        16
      ]
    },
    {
      "name": "Solid1",
      "scale": [
        0.01,
        0.01,
        0.01
      ],
      "mesh": 7
    },
    {
      "name": "Part9-Druckhulse1",
      "translation": [
        -0.09619452804327011,
        0.020229389891028404,
        0.09288181364536285
      ],
      "rotation": [
        0.2657923650860976,
        0.8923667092957006,
        -0.10411824380270444,
        -0.34956468179323574
      ],
      "children": [
        18
      ]
    },
    {
      "name": "Solid1",
      "scale": [
        0.01,
        0.01,
        0.01
      ],
      "mesh": 8
    },
    {
      "name": "Part7-TrapezSpindel1",
      "translation": [
        -0.007823874242603779,
        0.020229389891028404,
        0.18836922943592072
      ],
      "rotation": [
        0.34267058624593505,
        -0.12495190101077999,
        0.8747673643178073,
        -0.3189764078425481
      ],
      "children": [
        20
      ]
    }
  ],
  "scenes": [
    {
      "name": "Scene",
      "nodes": [
        1,
        3,
        5,
        7,
        9,
        11,
        13,
        15,
        17,
        19,
        21
      ]
    }
  ]
}