{
  "accessors": [
    {
      "bufferView": 0,
      "componentType": 5126,
      "count": 65,
      "max": [
        0.5,
        7.300000190734863,
        0.49860191345214844
      ],
      "min": [
        -0.49441540241241455,
        0.30000001192092896,
        -0.49860191345214844
      ],
      "type": "VEC3"
    },
    {
      "bufferView": 0,
      "byteOffset": 12,
      "componentType": 5126,
      "count": 65,
      "type": "VEC3"
    },
    {
      "bufferView": 1,
      "componentType": 5125,
      "count": 183,
      "type": "SCALAR"
    },
    {
      "bufferView": 0,
      "byteOffset": 2080,
      "componentType": 5126,
      "count": 903,
      "max": [
        2.25,
        0.30000001192092896,
        2.25
      ],
      "min": [
        -2.25,
        -2.799999952316284,
        -2.25
      ],
      "type": "VEC3"
    },
    {
      "bufferView": 0,
      "byteOffset": 2092,
      "componentType": 5126,
      "count": 903,
      "type": "VEC3"
    },
    {
      "bufferView": 1,
      "byteOffset": 732,
      "componentType": 5125,
      "count": 2979,
      "type": "SCALAR"
    }
  ],
  "asset": {
    "version": "2.0"
  },
  "bufferViews": [
    {
      "buffer": 0,
      "byteLength": 30976,
      "byteStride": 32,
      "target": 34962
    },
    {
      "buffer": 0,
      "byteLength": 12648,
      "byteOffset": 30976,
      "target": 34963
    }
  ],
  "buffers": [
    {
      "byteLength": 43624,
      "uri": "data:application/octet-stream;base64,"
    }
  ],
  "materials": [
    {
      "doubleSided": true,
      "name": "AnodizedBlack",
      "pbrMetallicRoughness": {
        "baseColorFactor": [
          0.0030959800351411104,
          0.0030959800351411104,
          0.0030959800351411104,
          1.0
        ],
        "roughnessFactor": 0.699999988079071
      }
    },
    {
      "doubleSided": true,
      "name": "ChromePolished",
      "pbrMetallicRoughness": {
        "baseColorFactor": [
          0.9049559831619263,
          0.9049559831619263,
          0.9049559831619263,
          1.0
        ],
        "roughnessFactor": 0.07999999821186066
      }
    }
  ],
  "meshes": [
    {
      "name": "Solid1",
      "primitives": [
        {
          "attributes": {
            "NORMAL": 1,
            "POSITION": 0
          },
          "indices": 2,
          "material": 0,
          "mode": 4
        },
        {
          "attributes": {
            "NORMAL": 4,
            "POSITION": 3
          },
          "indices": 5,
          "material": 1,
          "mode": 4
        }
      ]
    }
  ],
  "nodes": [
    {
      "matrix": [
        0.01,
        0.0,
        0.0,
        0.0,
        0.0,
        0.01,
        0.0,
        0.0,
        0.0,
        0.0,
        0.01,
        0.0,
        0.0,
        0.0,
        0.0,
        1.0
      ],
      "mesh": 0,
      "name": "Solid1"
    }
  ],
  "scenes": [
    {
      "nodes": [
        0
      ]
    }
  ]
}