{
  "accessors": [
    {
      "bufferView": 0,
      "componentType": 5126,
      "count": 376,
      "max": [
        0.0,
        6.0,
        1.5
      ],
      "min": [
        -9.199999809265137,
        -4.900000095367432,
        -1.5
      ],
      "type": "VEC3"
    },
    {
      "bufferView": 0,
      "byteOffset": 12,
      "componentType": 5126,
      "count": 376,
      "type": "VEC3"
    },
    {
      "bufferView": 1,
      "componentType": 5125,
      "count": 1068,
      "type": "SCALAR"
    },
    {
      "bufferView": 0,
      "byteOffset": 12032,
      "componentType": 5126,
      "count": 478,
      "max": [
        0.5,
        5.398223876953125,
        0.8999999761581421
      ],
      "min": [
        -9.699999809265137,
        3.601775884628296,
        -0.8999999761581421
      ],
      "type": "VEC3"
    },
    {
      "bufferView": 0,
      "byteOffset": 12044,
      "componentType": 5126,
      "count": 478,
      "type": "VEC3"
    },
    {
      "bufferView": 0,
      "byteOffset": 12056,
      "componentType": 5126,
      "count": 478,
      "type": "VEC2"
    },
    {
      "bufferView": 1,
      "byteOffset": 4272,
      "componentType": 5125,
      "count": 1680,
      "type": "SCALAR"
    }
  ],
  "asset": {
    "version": "2.0"
  },
  "bufferViews": [
    {
      "buffer": 0,
      "byteLength": 27328,
      "byteStride": 32,
      "target": 34962
    },
    {
      "buffer": 0,
      "byteLength": 10992,
      "byteOffset": 27328,
      "target": 34963
    },
    {
      "buffer": 0,
      "byteLength": 88057,
      "byteOffset": 38320
    }
  ],
  "buffers": [
    {
      "byteLength": 126380,
      "uri": "data:application/octet-stream;base64,"
    }
  ],
  "extensionsUsed": [
    "KHR_texture_transform"
  ],
  "images": [
    {
      "bufferView": 2,
      "mimeType": "image/png",
      "name": "IDD9637DFC31449EBBD4ACEC0124E523Cbasecolortexture.png"
    }
  ],
  "materials": [
    {
      "doubleSided": true,
      "name": "Steel",
      "pbrMetallicRoughness": {
        "baseColorFactor": [
          0.7454040050506592,
          0.7379109859466553,
          0.7083759903907776,
          1.0
        ],
        "metallicFactor": 0.0,
        "roughnessFactor": 0.800000011920929
      }
    },
    {
      "doubleSided": true,
      "name": "SteelCast",
      "pbrMetallicRoughness": {
        "baseColorTexture": {
          "extensions": {
            "KHR_texture_transform": {
              "scale": [
                0.1416189968585968,
                0.1416189968585968
              ]
            }
          },
          "index": 0
        },
        "metallicFactor": 0.0,
        "roughnessFactor": 0.6000000238418579
      }
    }
  ],
  "meshes": [
    {
      "name": "Solid1",
      "primitives": [
        {
          "attributes": {
            "NORMAL": 1,
            "POSITION": 0
          },
          "indices": 2,
          "material": 0,
          "mode": 4
        },
        {
          "attributes": {
            "NORMAL": 4,
            "POSITION": 3,
            "TEXCOORD_0": 5
          },
          "indices": 6,
          "material": 1,
          "mode": 4
        }
      ]
    }
  ],
  "nodes": [
    {
      "matrix": [
        0.01,
        0.0,
        0.0,
        0.0,
        0.0,
        0.01,
        0.0,
        0.0,
        0.0,
        0.0,
        0.01,
        0.0,
        0.0,
        0.0,
        0.0,
        1.0
      ],
      "mesh": 0,
      "name": "Solid1"
    }
  ],
  "samplers": [
    {
      "magFilter": 9729,
      "minFilter": 9729,
      "wrapS": 10497,
      "wrapT": 10497
    }
  ],
  "scenes": [
    {
      "nodes": [
        0
      ]
    }
  ],
  "textures": [
    {
      "name": "texture_source0_sampler0",
      "sampler": 0,
      "source": 0
    }
  ]
}