{
  "accessors": [
    {
      "bufferView": 0,
      "componentType": 5126,
      "count": 118,
      "max": [
        4.799988746643066,
        -3.487729787826538,
        1.0
      ],
      "min": [
        2.799999952316284,
        -12.641218185424805,
        -1.0
      ],
      "type": "VEC3"
    },
    {
      "bufferView": 0,
      "byteOffset": 12,
      "componentType": 5126,
      "count": 118,
      "type": "VEC3"
    },
    {
      "bufferView": 1,
      "componentType": 5125,
      "count": 342,
      "type": "SCALAR"
    },
    {
      "bufferView": 0,
      "byteOffset": 3776,
      "componentType": 5126,
      "count": 3370,
      "max": [
        7.599999904632568,
        11.179086685180664,
        49.14730453491211
      ],
      "min": [
        -0.10000000149011612,
        -12.641218185424805,
        -56.617881774902344
      ],
      "type": "VEC3"
    },
    {
      "bufferView": 0,
      "byteOffset": 3788,
      "componentType": 5126,
      "count": 3370,
      "type": "VEC3"
    },
    {
      "bufferView": 0,
      "byteOffset": 3800,
      "componentType": 5126,
      "count": 3370,
      "type": "VEC2"
    },
    {
      "bufferView": 1,
      "byteOffset": 1368,
      "componentType": 5125,
      "count": 10758,
      "type": "SCALAR"
    }
  ],
  "asset": {
    "version": "2.0"
  },
  "bufferViews": [
    {
      "buffer": 0,
      "byteLength": 111616,
      "byteStride": 32,
      "target": 34962
    },
    {
      "buffer": 0,
      "byteLength": 44400,
      "byteOffset": 111616,
      "target": 34963
    },
    {
      "buffer": 0,
      "byteLength": 73161,
      "byteOffset": 156016
    },
    {
      "buffer": 0,
      "byteLength": 88057,
      "byteOffset": 229180
    }
  ],
  "buffers": [
    {
      "byteLength": 317240,
      "uri": "data:application/octet-stream;base64,"
    }
  ],
  "extensionsUsed": [
    "KHR_texture_transform"
  ],
  "images": [
    {
      "bufferView": 2,
      "mimeType": "image/png",
      "name": "AlloySand2_bump_normalmap.png"
    },
    {
      "bufferView": 3,
      "mimeType": "image/png",
      "name": "I9B5090FB0ACE47AFB9C262526D6BBF7Bbasecolortexture.png"
    }
  ],
  "materials": [
    {
      "doubleSided": true,
      "name": "Default",
      "pbrMetallicRoughness": {
        "baseColorFactor": [
          0.52252197265625,
          0.52252197265625,
          0.52252197265625,
          1.0
        ],
        "metallicFactor": 0.0,
        "roughnessFactor": 0.699999988079071
      }
    },
    {
      "doubleSided": true,
      "name": "IronCast",
      "normalTexture": {
        "extensions": {
          "KHR_texture_transform": {
            "scale": [
              0.1908389776945114,
              0.1908389776945114
            ]
          }
        },
        "index": 0
      },
      "pbrMetallicRoughness": {
        "baseColorTexture": {
          "extensions": {
            "KHR_texture_transform": {
              "scale": [
                0.1416189968585968,
                0.1416189968585968
              ]
            }
          },
          "index": 1
        },
        "metallicFactor": 0.0,
        "roughnessFactor": 0.949999988079071
      }
    }
  ],
  "meshes": [
    {
      "name": "Solid1",
      "primitives": [
        {
          "attributes": {
            "NORMAL": 1,
            "POSITION": 0
          },
          "indices": 2,
          "material": 0,
          "mode": 4
        },
        {
          "attributes": {
            "NORMAL": 4,
            "POSITION": 3,
            "TEXCOORD_0": 5
          },
          "indices": 6,
          "material": 1,
          "mode": 4
        }
      ]
    }
  ],
  "nodes": [
    {
      "matrix": [
        0.01,
        0.0,
        0.0,
        0.0,
        0.0,
        0.01,
        0.0,
        0.0,
        0.0,
        0.0,
        0.01,
        0.0,
        0.0,
        0.0,
        0.0,
        1.0
      ],
      "mesh": 0,
      "name": "Solid1"
    }
  ],
  "samplers": [
    {
      "magFilter": 9729,
      "minFilter": 9729,
      "wrapS": 10497,
      "wrapT": 10497
    },
    {
      "magFilter": 9729,
      "minFilter": 9729,
      "wrapS": 10497,
      "wrapT": 10497
    }
  ],
  "scenes": [
    {
      "nodes": [
        0
      ]
    }
  ],
  "textures": [
    {
      "name": "texture_source0_sampler0",
      "sampler": 0,
      "source": 0
    },
    {
      "name": "texture_source1_sampler1",
      "sampler": 1,
      "source": 1
    }
  ]
}