{
  "accessors": [
    {
      "bufferView": 0,
      "componentType": 5126,
      "count": 1106,
      "max": [
        7.0,
        1.5,
        1.4989992380142212
      ],
      "min": [
        0.0,
        -1.4959983825683594,
        -1.4989992380142212
      ],
      "type": "VEC3"
    },
    {
      "bufferView": 0,
      "byteOffset": 12,
      "componentType": 5126,
      "count": 1106,
      "type": "VEC3"
    },
    {
      "bufferView": 1,
      "componentType": 5125,
      "count": 4692,
      "type": "SCALAR"
    }
  ],
  "asset": {
    "version": "2.0"
  },
  "bufferViews": [
    {
      "buffer": 0,
      "byteLength": 35392,
      "byteStride": 32,
      "target": 34962
    },
    {
      "buffer": 0,
      "byteLength": 18768,
      "byteOffset": 35392,
      "target": 34963
    }
  ],
  "buffers": [
    {
      "byteLength": 54160,
      "uri": "data:application/octet-stream;base64,"
    }
  ],
  "materials": [
    {
      "doubleSided": true,
      "name": "RubberBlack",
      "pbrMetallicRoughness": {
        "baseColorFactor": [
          0.05087609961628914,
          0.05087609961628914,
          0.05087609961628914,
          1.0
        ],
        "metallicFactor": 0.0,
        "roughnessFactor": 0.75
      }
    }
  ],
  "meshes": [
    {
      "name": "Solid1",
      "primitives": [
        {
          "attributes": {
            "NORMAL": 1,
            "POSITION": 0
          },
          "indices": 2,
          "material": 0,
          "mode": 4
        }
      ]
    }
  ],
  "nodes": [
    {
      "matrix": [
        0.01,
        0.0,
        0.0,
        0.0,
        0.0,
        0.01,
        0.0,
        0.0,
        0.0,
        0.0,
        0.01,
        0.0,
        0.0,
        0.0,
        0.0,
        1.0
      ],
      "mesh": 0,
      "name": "Solid1"
    }
  ],
  "scenes": [
    {
      "nodes": [
        0
      ]
    }
  ]
}