{
  "asset": {
    "generator": "glTF-Transform v4.3.0",
    "version": "2.0"
  },
  "accessors": [
    {
      "type": "VEC3",
      "componentType": 5126,
      "count": 65,
      "max": [
        0.5,
        7.300000190734863,
        0.49860191345214844
      ],
      "min": [
        -0.49441540241241455,
        0.30000001192092896,
        -0.49860191345214844
      ],
      "bufferView": 0,
      "byteOffset": 0
    },
    {
      "type": "VEC3",
      "componentType": 5126,
      "count": 65,
      "bufferView": 0,
      "byteOffset": 12
    },
    {
      "type": "SCALAR",
      "componentType": 5125,
      "count": 183,
      "bufferView": 1,
      "byteOffset": 0
    },
    {
      "type": "SCALAR",
      "componentType": 5125,
      "count": 2979,
      "bufferView": 1,
      "byteOffset": 732
    },
    {
      "type": "VEC3",
      "componentType": 5126,
      "count": 903,
      "max": [
        2.25,
        0.30000001192092896,
        2.25
      ],
      "min": [
        -2.25,
        -2.799999952316284,
        -2.25
      ],
      "bufferView": 2,
      "byteOffset": 0
    },
    {
      "type": "VEC3",
      "componentType": 5126,
      "count": 903,
      "bufferView": 2,
      "byteOffset": 12
    },
    {
      "type": "VEC3",
      "componentType": 5126,
      "count": 6057,
      "max": [
        2.542428493499756,
        1,
        2.542428493499756
      ],
      "min": [
        -2.542428493499756,
        0,
        -2.542428493499756
      ],
      "bufferView": 3,
      "byteOffset": 0
    },
    {
      "type": "VEC3",
      "componentType": 5126,
      "count": 6057,
      "bufferView": 3,
      "byteOffset": 12
    },
    {
      "type": "VEC2",
      "componentType": 5126,
      "count": 6057,
      "bufferView": 3,
      "byteOffset": 24
    },
    {
      "type": "SCALAR",
      "componentType": 5125,
      "count": 22992,
      "bufferView": 4,
      "byteOffset": 0
    },
    {
      "type": "VEC3",
      "componentType": 5126,
      "count": 19386,
      "max": [
        1.350000023841858,
        5.5,
        1.349915623664856
      ],
      "min": [
        -1.350000023841858,
        -5.5,
        -1.3499630689620972
      ],
      "bufferView": 5,
      "byteOffset": 0
    },
    {
      "type": "VEC3",
      "componentType": 5126,
      "count": 19386,
      "bufferView": 5,
      "byteOffset": 12
    },
    {
      "type": "SCALAR",
      "componentType": 5125,
      "count": 82518,
      "bufferView": 6,
      "byteOffset": 0
    },
    {
      "type": "VEC3",
      "componentType": 5126,
      "count": 4608,
      "max": [
        1.8624999523162842,
        10,
        1.8624999523162842
      ],
      "min": [
        -1.8624999523162842,
        0,
        -1.8624999523162842
      ],
      "bufferView": 7,
      "byteOffset": 0
    },
    {
      "type": "VEC3",
      "componentType": 5126,
      "count": 4608,
      "bufferView": 7,
      "byteOffset": 12
    },
    {
      "type": "SCALAR",
      "componentType": 5125,
      "count": 25566,
      "bufferView": 8,
      "byteOffset": 0
    }
  ],
  "bufferViews": [
    {
      "buffer": 0,
      "byteOffset": 0,
      "byteLength": 1560,
      "byteStride": 24,
      "target": 34962
    },
    {
      "buffer": 0,
      "byteOffset": 1560,
      "byteLength": 12648,
      "target": 34963
    },
    {
      "buffer": 0,
      "byteOffset": 14208,
      "byteLength": 21672,
      "byteStride": 24,
      "target": 34962
    },
    {
      "buffer": 1,
      "byteOffset": 0,
      "byteLength": 193824,
      "byteStride": 32,
      "target": 34962
    },
    {
      "buffer": 1,
      "byteOffset": 193824,
      "byteLength": 91968,
      "target": 34963
    },
    {
      "buffer": 2,
      "byteOffset": 0,
      "byteLength": 465264,
      "byteStride": 24,
      "target": 34962
    },
    {
      "buffer": 2,
      "byteOffset": 465264,
      "byteLength": 330072,
      "target": 34963
    },
    {
      "buffer": 3,
      "byteOffset": 0,
      "byteLength": 110592,
      "byteStride": 24,
      "target": 34962
    },
    {
      "buffer": 3,
      "byteOffset": 110592,
      "byteLength": 102264,
      "target": 34963
    }
  ],
  "samplers": [
    {
      "magFilter": 9729,
      "minFilter": 9729,
      "wrapS": 10497,
      "wrapT": 10497
    }
  ],
  "textures": [
    {
      "source": 0,
      "sampler": 0
    }
  ],
  "images": [
    {
      "name": "MetalsOrnamentalMetalsAluminumBrushed_normalmap.png",
      "mimeType": "image/png",
      "uri": "normal.png"
    }
  ],
  "buffers": [
    {
      "uri": "Suspension_Restored_Corrected_1.bin",
      "byteLength": 35880
    },
    {
      "uri": "Suspension_Restored_Corrected_2.bin",
      "byteLength": 285792
    },
    {
      "uri": "Suspension_Restored_Corrected_3.bin",
      "byteLength": 795336
    },
    {
      "uri": "Suspension_Restored_Corrected_4.bin",
      "byteLength": 212856
    }
  ],
  "materials": [
    {
      "name": "AnodizedBlack",
      "doubleSided": true,
      "pbrMetallicRoughness": {
        "baseColorFactor": [
          0.0030959800351411104,
          0.0030959800351411104,
          0.0030959800351411104,
          1
        ],
        "roughnessFactor": 0.699999988079071
      }
    },
    {
      "name": "ChromePolished",
      "doubleSided": true,
      "pbrMetallicRoughness": {
        "baseColorFactor": [
          0.9049559831619263,
          0.9049559831619263,
          0.9049559831619263,
          1
        ],
        "roughnessFactor": 0.07999999821186066
      }
    },
    {
      "name": "LightRed",
      "doubleSided": true,
      "pbrMetallicRoughness": {
        "baseColorFactor": [
          0.7874119877815247,
          0.013411699794232845,
          0.013411699794232845,
          1
        ],
        "roughnessFactor": 0.42500001192092896,
        "metallicFactor": 0
      },
      "normalTexture": {
        "index": 0,
        "extensions": {
          "KHR_texture_transform": {
            "rotation": 1.5707963705062866,
            "scale": [
              0.007874015718698502,
              0.001312335953116417
            ]
          }
        }
      }
    },
    {
      "name": "Opal",
      "doubleSided": true,
      "pbrMetallicRoughness": {
        "baseColorFactor": [
          0.6938719749450684,
          0.6866850256919861,
          0.8148469924926758,
          1
        ],
        "roughnessFactor": 0.4000000059604645,
        "metallicFactor": 0
      }
    },
    {
      "name": "BlueWallPaintGlossy",
      "doubleSided": true,
      "pbrMetallicRoughness": {
        "baseColorFactor": [
          0.009134059771895409,
          0.018500199541449547,
          0.9386860132217407,
          1
        ],
        "roughnessFactor": 0.47999998927116394,
        "metallicFactor": 0
      }
    }
  ],
  "meshes": [
    {
      "name": "Solid1",
      "primitives": [
        {
          "attributes": {
            "NORMAL": 1,
            "POSITION": 0
          },
          "mode": 4,
          "material": 0,
          "indices": 2
        },
        {
          "attributes": {
            "NORMAL": 5,
            "POSITION": 4
          },
          "mode": 4,
          "material": 1,
          "indices": 3
        }
      ]
    },
    {
      "name": "Solid1",
      "primitives": [
        {
          "attributes": {
            "NORMAL": 7,
            "POSITION": 6,
            "TEXCOORD_0": 8
          },
          "mode": 4,
          "material": 2,
          "indices": 9
        }
      ]
    },
    {
      "name": "Solid1",
      "primitives": [
        {
          "attributes": {
            "NORMAL": 11,
            "POSITION": 10
          },
          "mode": 4,
          "material": 3,
          "indices": 12
        }
      ]
    },
    {
      "name": "Solid1",
      "primitives": [
        {
          "attributes": {
            "NORMAL": 14,
            "POSITION": 13
          },
          "mode": 4,
          "material": 4,
          "indices": 15
        }
      ]
    }
  ],
  "nodes": [
    {
      "name": "Solid1",
      "mesh": 0
    },
    {
      "name": "BASE1",
      "translation": [
        0.002614983357489109,
        -0.035066306591033936,
        0.011236391961574554
      ],
      "rotation": [
        0,
        0.9985967333476623,
        0,
        -0.05295813579968467
      ],
      "scale": [
        0.005752819896221056,
        0.005752818658947945,
        0.005752819896221056
      ],
      "children": [
        0
      ]
    },
    {
      "name": "Solid1",
      "mesh": 1
    },
    {
      "name": "NUT1",
      "translation": [
        0.002614983357489109,
        0.02418769896030426,
        0.011236391961574554
      ],
      "rotation": [
        0,
        0.1857172500899827,
        0,
        0.9826032276656813
      ],
      "scale": [
        0.005752820097956669,
        0.005752818658947945,
        0.005752820097956669
      ],
      "children": [
        2
      ]
    },
    {
      "name": "Solid1",
      "mesh": 2
    },
    {
      "name": "ROD1",
      "translation": [
        0.002614983357489109,
        0.0264437198638916,
        0.011236391961574554
      ],
      "rotation": [
        0,
        1,
        0,
        -2.9896510165961092e-33
      ],
      "scale": [
        0.005752818658947945,
        0.005752818658947945,
        0.005752818658947945
      ],
      "children": [
        4
      ]
    },
    {
      "name": "Solid1",
      "mesh": 3
    },
    {
      "name": "SPRING1",
      "translation": [
        0.002614983357489109,
        -0.03334049880504608,
        0.011236391961574554
      ],
      "rotation": [
        0,
        0.05295813579968467,
        0,
        0.9985967333476623
      ],
      "scale": [
        0.005752819896221056,
        0.005752818658947945,
        0.005752819896221056
      ],
      "children": [
        6
      ]
    }
  ],
  "scenes": [
    {
      "name": "Scene",
      "nodes": [
        1,
        3,
        5,
        7
      ]
    }
  ],
  "extensionsUsed": [
    "KHR_texture_transform"
  ]
}